<svg xmlns="http://www.w3.org/2000/svg" xmlns:xlink="http://www.w3.org/1999/xlink" width="1080" zoomAndPan="magnify" viewBox="0 0 810 809.999993" height="1080" preserveAspectRatio="xMidYMid meet" version="1.0"><defs><clipPath id="f673cd301b"><path d="M 329.199219 273.429688 L 332.949219 273.429688 L 332.949219 277.179688 L 329.199219 277.179688 Z M 329.199219 273.429688 " clip-rule="nonzero"/></clipPath><clipPath id="203923366e"><path d="M 331.074219 273.429688 C 331.574219 273.429688 332.050781 273.628906 332.402344 273.980469 C 332.753906 274.332031 332.949219 274.808594 332.949219 275.304688 C 332.949219 275.804688 332.753906 276.28125 332.402344 276.632812 C 332.050781 276.984375 331.574219 277.179688 331.074219 277.179688 C 330.578125 277.179688 330.101562 276.984375 329.75 276.632812 C 329.398438 276.28125 329.199219 275.804688 329.199219 275.304688 C 329.199219 274.808594 329.398438 274.332031 329.75 273.980469 C 330.101562 273.628906 330.578125 273.429688 331.074219 273.429688 Z M 331.074219 273.429688 " clip-rule="nonzero"/></clipPath><clipPath id="8d2be76d6f"><path d="M 128.3125 91 L 681.8125 91 L 681.8125 720 L 128.3125 720 Z M 128.3125 91 " clip-rule="nonzero"/></clipPath></defs><g clip-path="url(#f673cd301b)"><g clip-path="url(#203923366e)"><path fill="#53c1de" d="M 329.199219 273.429688 L 332.949219 273.429688 L 332.949219 277.179688 L 329.199219 277.179688 Z M 329.199219 273.429688 " fill-opacity="1" fill-rule="nonzero"/></g></g><g clip-path="url(#8d2be76d6f)"><path fill="#e44d26" d="M 178.558594 656.265625 L 128.15625 91.050781 L 681.96875 91.050781 L 631.527344 656.1875 L 404.710938 719.027344 Z M 178.558594 656.265625 " fill-opacity="1" fill-rule="nonzero"/></g><path fill="#f16529" d="M 588.328125 620.195312 L 631.449219 137.265625 L 405.0625 137.265625 L 405.0625 671.003906 Z M 588.328125 620.195312 " fill-opacity="1" fill-rule="nonzero"/><path fill="#ebebeb" d="M 404.828125 206.582031 L 231.203125 206.582031 L 249.90625 416.214844 L 405.0625 416.214844 L 405.0625 346.898438 L 313.324219 346.898438 L 306.984375 275.917969 L 405.0625 275.917969 L 405.0625 206.582031 Z M 405.0625 526.703125 L 404.769531 526.78125 L 327.554688 505.941406 L 322.648438 450.65625 L 253.007812 450.65625 L 262.722656 559.496094 L 404.75 598.746094 L 405.0625 598.648438 Z M 405.0625 526.703125 " fill-opacity="1" fill-rule="nonzero"/><path fill="#ffffff" d="M 404.828125 416.214844 L 490.207031 416.214844 L 482.355469 506.097656 L 405.023438 526.957031 L 405.023438 599.082031 L 547.167969 559.691406 L 566.207031 346.859375 L 405.0625 346.859375 Z M 576.84375 225.1875 L 578.492188 206.582031 L 404.789062 206.582031 L 404.789062 275.898438 L 572.25 275.898438 L 573.625 260.316406 Z M 576.84375 225.1875 " fill-opacity="1" fill-rule="nonzero"/></svg>