<svg xmlns="http://www.w3.org/2000/svg" xmlns:xlink="http://www.w3.org/1999/xlink" width="1080" zoomAndPan="magnify" viewBox="0 0 810 809.999993" height="1080" preserveAspectRatio="xMidYMid meet" version="1.0"><defs><clipPath id="1df9d5bfcb"><path d="M 48.449219 91 L 761.699219 91 L 761.699219 716 L 48.449219 716 Z M 48.449219 91 " clip-rule="nonzero"/></clipPath><clipPath id="3bc9ec4204"><path d="M 309.230469 273.429688 L 332.953125 273.429688 L 332.953125 283.722656 L 309.230469 283.722656 Z M 309.230469 273.429688 " clip-rule="nonzero"/></clipPath><clipPath id="f6f28d51b7"><path d="M 314.378906 273.429688 L 327.804688 273.429688 C 329.167969 273.429688 330.476562 273.972656 331.441406 274.9375 C 332.40625 275.902344 332.949219 277.210938 332.949219 278.578125 C 332.949219 279.941406 332.40625 281.25 331.441406 282.214844 C 330.476562 283.179688 329.167969 283.722656 327.804688 283.722656 L 314.378906 283.722656 C 313.011719 283.722656 311.703125 283.179688 310.738281 282.214844 C 309.773438 281.25 309.230469 279.941406 309.230469 278.578125 C 309.230469 277.210938 309.773438 275.902344 310.738281 274.9375 C 311.703125 273.972656 313.011719 273.429688 314.378906 273.429688 Z M 314.378906 273.429688 " clip-rule="nonzero"/></clipPath></defs><path fill="#53c1de" d="M 468.882812 403.421875 C 468.882812 404.464844 468.855469 405.507812 468.804688 406.550781 C 468.753906 407.59375 468.675781 408.632812 468.574219 409.671875 C 468.472656 410.710938 468.34375 411.746094 468.191406 412.78125 C 468.039062 413.8125 467.859375 414.839844 467.65625 415.863281 C 467.453125 416.886719 467.222656 417.90625 466.96875 418.917969 C 466.714844 419.929688 466.4375 420.9375 466.132812 421.9375 C 465.832031 422.933594 465.503906 423.925781 465.152344 424.90625 C 464.800781 425.890625 464.421875 426.863281 464.023438 427.828125 C 463.625 428.792969 463.203125 429.746094 462.753906 430.691406 C 462.308594 431.632812 461.839844 432.566406 461.347656 433.488281 C 460.855469 434.40625 460.339844 435.316406 459.804688 436.210938 C 459.265625 437.105469 458.707031 437.988281 458.128906 438.855469 C 457.546875 439.722656 456.945312 440.578125 456.324219 441.414062 C 455.703125 442.253906 455.058594 443.078125 454.398438 443.882812 C 453.734375 444.691406 453.054688 445.480469 452.351562 446.253906 C 451.652344 447.027344 450.929688 447.78125 450.191406 448.519531 C 449.453125 449.257812 448.699219 449.980469 447.925781 450.679688 C 447.152344 451.378906 446.359375 452.0625 445.554688 452.722656 C 444.746094 453.386719 443.921875 454.027344 443.085938 454.648438 C 442.246094 455.273438 441.390625 455.871094 440.523438 456.453125 C 439.65625 457.03125 438.773438 457.589844 437.878906 458.128906 C 436.980469 458.664062 436.074219 459.179688 435.152344 459.671875 C 434.230469 460.164062 433.300781 460.632812 432.355469 461.078125 C 431.410156 461.523438 430.457031 461.949219 429.492188 462.347656 C 428.527344 462.746094 427.554688 463.121094 426.570312 463.472656 C 425.585938 463.824219 424.597656 464.152344 423.597656 464.457031 C 422.597656 464.757812 421.589844 465.035156 420.578125 465.289062 C 419.566406 465.542969 418.546875 465.773438 417.523438 465.976562 C 416.5 466.179688 415.46875 466.359375 414.4375 466.511719 C 413.40625 466.664062 412.367188 466.792969 411.328125 466.894531 C 410.289062 466.996094 409.25 467.074219 408.207031 467.125 C 407.164062 467.175781 406.121094 467.203125 405.074219 467.203125 C 404.03125 467.203125 402.988281 467.175781 401.945312 467.125 C 400.902344 467.074219 399.859375 466.996094 398.820312 466.894531 C 397.78125 466.792969 396.746094 466.664062 395.710938 466.511719 C 394.679688 466.359375 393.652344 466.179688 392.628906 465.976562 C 391.601562 465.773438 390.585938 465.542969 389.570312 465.289062 C 388.558594 465.035156 387.550781 464.757812 386.554688 464.457031 C 385.554688 464.152344 384.5625 463.824219 383.578125 463.472656 C 382.597656 463.121094 381.621094 462.746094 380.65625 462.347656 C 379.691406 461.949219 378.738281 461.523438 377.792969 461.078125 C 376.851562 460.632812 375.917969 460.164062 374.996094 459.671875 C 374.074219 459.179688 373.167969 458.664062 372.273438 458.128906 C 371.375 457.589844 370.496094 457.03125 369.625 456.453125 C 368.757812 455.871094 367.90625 455.273438 367.066406 454.648438 C 366.226562 454.027344 365.402344 453.386719 364.597656 452.722656 C 363.789062 452.0625 363 451.378906 362.226562 450.679688 C 361.453125 449.980469 360.695312 449.257812 359.957031 448.519531 C 359.21875 447.78125 358.5 447.027344 357.796875 446.253906 C 357.097656 445.480469 356.414062 444.691406 355.753906 443.882812 C 355.089844 443.078125 354.449219 442.253906 353.824219 441.414062 C 353.203125 440.578125 352.601562 439.722656 352.023438 438.855469 C 351.441406 437.988281 350.882812 437.105469 350.347656 436.210938 C 349.808594 435.316406 349.296875 434.40625 348.804688 433.488281 C 348.3125 432.566406 347.839844 431.632812 347.394531 430.691406 C 346.949219 429.746094 346.523438 428.792969 346.125 427.828125 C 345.726562 426.863281 345.351562 425.890625 345 424.90625 C 344.648438 423.925781 344.320312 422.933594 344.015625 421.9375 C 343.714844 420.9375 343.433594 419.929688 343.179688 418.917969 C 342.925781 417.90625 342.699219 416.886719 342.496094 415.863281 C 342.292969 414.839844 342.113281 413.8125 341.960938 412.78125 C 341.804688 411.746094 341.679688 410.710938 341.574219 409.671875 C 341.472656 408.632812 341.398438 407.59375 341.34375 406.550781 C 341.292969 405.507812 341.269531 404.464844 341.269531 403.421875 C 341.269531 402.378906 341.292969 401.332031 341.34375 400.292969 C 341.398438 399.25 341.472656 398.207031 341.574219 397.167969 C 341.679688 396.128906 341.804688 395.09375 341.960938 394.0625 C 342.113281 393.03125 342.292969 392 342.496094 390.976562 C 342.699219 389.953125 342.925781 388.9375 343.179688 387.921875 C 343.433594 386.910156 343.714844 385.90625 344.015625 384.90625 C 344.320312 383.90625 344.648438 382.917969 345 381.933594 C 345.351562 380.949219 345.726562 379.976562 346.125 379.011719 C 346.523438 378.046875 346.949219 377.09375 347.394531 376.152344 C 347.839844 375.207031 348.3125 374.273438 348.804688 373.355469 C 349.296875 372.433594 349.808594 371.527344 350.347656 370.632812 C 350.882812 369.734375 351.441406 368.855469 352.023438 367.984375 C 352.601562 367.117188 353.203125 366.265625 353.824219 365.425781 C 354.449219 364.589844 355.089844 363.765625 355.753906 362.957031 C 356.414062 362.152344 357.097656 361.363281 357.796875 360.589844 C 358.5 359.816406 359.21875 359.058594 359.957031 358.320312 C 360.695312 357.582031 361.453125 356.863281 362.226562 356.164062 C 363 355.460938 363.789062 354.78125 364.597656 354.117188 C 365.402344 353.457031 366.226562 352.8125 367.066406 352.191406 C 367.90625 351.570312 368.757812 350.96875 369.625 350.390625 C 370.496094 349.808594 371.375 349.25 372.273438 348.714844 C 373.167969 348.175781 374.074219 347.664062 374.996094 347.171875 C 375.917969 346.679688 376.851562 346.210938 377.792969 345.761719 C 378.738281 345.316406 379.691406 344.894531 380.65625 344.496094 C 381.621094 344.09375 382.597656 343.71875 383.578125 343.367188 C 384.5625 343.015625 385.554688 342.6875 386.554688 342.386719 C 387.550781 342.082031 388.558594 341.804688 389.570312 341.550781 C 390.585938 341.296875 391.601562 341.070312 392.628906 340.867188 C 393.652344 340.660156 394.679688 340.484375 395.710938 340.332031 C 396.746094 340.175781 397.78125 340.050781 398.820312 339.945312 C 399.859375 339.84375 400.902344 339.769531 401.945312 339.714844 C 402.988281 339.664062 404.03125 339.640625 405.074219 339.640625 C 406.121094 339.640625 407.164062 339.664062 408.207031 339.714844 C 409.25 339.769531 410.289062 339.84375 411.328125 339.945312 C 412.367188 340.050781 413.40625 340.175781 414.4375 340.332031 C 415.46875 340.484375 416.5 340.660156 417.523438 340.867188 C 418.546875 341.070312 419.566406 341.296875 420.578125 341.550781 C 421.589844 341.804688 422.597656 342.082031 423.597656 342.386719 C 424.597656 342.6875 425.585938 343.015625 426.570312 343.367188 C 427.554688 343.71875 428.527344 344.09375 429.492188 344.496094 C 430.457031 344.894531 431.410156 345.316406 432.355469 345.761719 C 433.300781 346.210938 434.230469 346.679688 435.152344 347.171875 C 436.074219 347.664062 436.980469 348.175781 437.878906 348.714844 C 438.773438 349.25 439.65625 349.808594 440.523438 350.390625 C 441.390625 350.96875 442.246094 351.570312 443.085938 352.191406 C 443.921875 352.8125 444.746094 353.457031 445.554688 354.117188 C 446.359375 354.78125 447.152344 355.460938 447.925781 356.164062 C 448.699219 356.863281 449.453125 357.582031 450.191406 358.320312 C 450.929688 359.058594 451.652344 359.816406 452.351562 360.589844 C 453.054688 361.363281 453.734375 362.152344 454.398438 362.957031 C 455.058594 363.765625 455.703125 364.589844 456.324219 365.425781 C 456.945312 366.265625 457.546875 367.117188 458.128906 367.984375 C 458.707031 368.855469 459.265625 369.734375 459.804688 370.632812 C 460.339844 371.527344 460.855469 372.433594 461.347656 373.355469 C 461.839844 374.273438 462.308594 375.207031 462.753906 376.152344 C 463.203125 377.09375 463.625 378.046875 464.023438 379.011719 C 464.421875 379.976562 464.800781 380.949219 465.152344 381.933594 C 465.503906 382.917969 465.832031 383.90625 466.132812 384.90625 C 466.4375 385.90625 466.714844 386.910156 466.96875 387.921875 C 467.222656 388.9375 467.453125 389.953125 467.65625 390.976562 C 467.859375 392 468.039062 393.03125 468.191406 394.0625 C 468.34375 395.09375 468.472656 396.128906 468.574219 397.167969 C 468.675781 398.207031 468.753906 399.25 468.804688 400.292969 C 468.855469 401.332031 468.882812 402.378906 468.882812 403.421875 Z M 468.882812 403.421875 " fill-opacity="1" fill-rule="nonzero"/><g clip-path="url(#1df9d5bfcb)"><path fill="#53c1de" d="M 182.601562 516.367188 C 188.871094 518.445312 195.140625 520.554688 201.5625 522.367188 C 199.480469 530.714844 197.667969 538.945312 195.972656 547.441406 C 181.351562 624.738281 192.765625 685.996094 229.257812 707.027344 C 266.882812 728.742188 330.125 706.460938 391.703125 652.574219 C 396.574219 648.265625 401.449219 643.8125 406.324219 639.058594 C 412.445312 645.058594 418.863281 650.761719 425.253906 656.316406 C 484.871094 707.5625 543.800781 728.296875 580.179688 707.292969 C 617.800781 685.578125 630.046875 619.71875 614.175781 539.507812 C 612.929688 533.390625 611.53125 527.121094 609.984375 520.703125 C 614.445312 519.457031 618.753906 518.058594 623.089844 516.664062 C 703.480469 490.078125 761.699219 447.03125 761.699219 402.886719 C 761.699219 360.703125 706.808594 319.765625 631.027344 293.710938 L 631.027344 293.683594 C 623.507812 291.1875 615.988281 288.8125 608.46875 286.582031 C 609.71875 281.445312 610.847656 276.273438 611.945312 271.136719 C 629.09375 188.132812 617.800781 121.472656 579.761719 99.457031 C 543.117188 78.425781 483.355469 100.289062 422.90625 152.929688 C 416.902344 158.070312 411.078125 163.507812 405.492188 168.941406 C 401.714844 165.320312 397.824219 161.695312 393.929688 158.21875 C 330.539062 101.953125 267.03125 78.277344 228.992188 100.4375 C 192.496094 121.621094 181.621094 184.421875 196.953125 262.90625 C 198.5 270.71875 200.164062 278.355469 202.097656 286.167969 C 193.179688 288.664062 184.414062 291.453125 176.179688 294.394531 C 101.796875 320.152344 48.449219 360.820312 48.449219 402.886719 C 48.449219 446.347656 105.273438 489.898438 182.601562 516.367188 Z M 372.058594 629.820312 C 349.085938 650.851562 322.457031 667.546875 293.480469 678.984375 C 278.027344 686.351562 260.195312 687.0625 244.296875 680.796875 C 222.15625 667.992188 212.941406 618.828125 225.484375 552.667969 C 227.03125 544.886719 228.695312 537.074219 230.625 529.410156 C 261.832031 536.09375 293.304688 540.699219 325.21875 543.042969 C 343.617188 569.097656 363.796875 594.023438 385.402344 617.402344 C 380.941406 621.707031 376.484375 625.898438 372.027344 629.789062 Z M 548.972656 368.335938 C 542.433594 356.066406 535.75 343.828125 528.765625 331.855469 C 521.929688 320.035156 514.828125 308.328125 507.457031 296.773438 C 529.894531 299.566406 551.351562 303.308594 571.410156 307.914062 C 564.992188 328.53125 557.472656 348.582031 548.972656 368.335938 Z M 549.242188 437.671875 C 558.15625 457.875 565.972656 478.34375 572.777344 499.375 C 551.171875 504.246094 529.328125 508.019531 507.308594 510.515625 C 514.828125 498.808594 521.929688 486.839844 528.914062 474.867188 C 536.015625 462.597656 542.703125 450.210938 549.242188 437.671875 Z M 533.132812 403.035156 C 523.800781 422.253906 513.757812 441.179688 503.058594 459.835938 C 492.476562 478.34375 481.183594 496.316406 469.355469 514.140625 C 448.613281 515.683594 427.007812 516.367188 405.132812 516.367188 C 383.261719 516.367188 362.101562 515.683594 341.625 514.40625 C 329.5 496.730469 318.089844 478.609375 307.359375 460.101562 C 296.632812 441.59375 286.734375 422.789062 277.402344 403.570312 L 277.34375 403.570312 C 286.527344 384.347656 296.570312 365.542969 307.152344 347.035156 C 317.730469 328.53125 329.171875 310.558594 341.148438 292.882812 C 362.042969 291.335938 383.351562 290.503906 405.105469 290.503906 C 426.859375 290.503906 448.285156 291.335938 469.058594 292.882812 C 480.886719 310.4375 492.179688 328.382812 502.910156 346.769531 C 513.636719 365.160156 523.652344 383.960938 533.132812 403.035156 Z M 281.207031 332.125 C 274.371094 343.949219 267.683594 356.039062 261.414062 368.308594 C 252.648438 347.570312 245.246094 327.253906 239.125 307.617188 C 259.1875 303.160156 280.492188 299.535156 302.632812 296.742188 C 295.292969 308.300781 288.042969 320.121094 281.207031 332.125 Z M 261.445312 438.773438 C 267.863281 451.042969 274.402344 463.160156 281.355469 475.132812 C 288.457031 487.253906 295.710938 499.375 303.378906 511.199219 C 281.652344 508.820312 260.046875 505.347656 238.738281 500.742188 C 244.859375 480.6875 252.527344 459.953125 261.445312 438.773438 Z M 406.203125 595.953125 C 392 580.652344 377.792969 563.691406 364.003906 545.421875 C 377.378906 545.984375 391.167969 546.253906 405.105469 546.253906 C 419.457031 546.253906 433.515625 545.984375 447.453125 545.273438 C 434.644531 562.949219 420.855469 579.820312 406.203125 595.953125 Z M 588.292969 637.78125 C 587.011719 654.742188 578.664062 670.605469 565.289062 681.332031 C 543.148438 694.132812 495.925781 677.4375 444.929688 633.710938 C 439.074219 628.691406 433.21875 623.253906 427.246094 617.699219 C 448.554688 594.171875 468.199219 569.246094 486.027344 543.074219 C 517.917969 540.429688 549.6875 535.558594 581.039062 528.457031 C 582.4375 534.160156 583.683594 539.867188 584.8125 545.449219 C 591.648438 575.542969 592.75 606.855469 588.292969 637.78125 Z M 600.386719 315.28125 C 607.636719 317.359375 614.59375 319.585938 621.277344 321.816406 C 686.183594 344.097656 731.742188 377.25 731.742188 402.589844 C 731.742188 429.890625 683.125 465.121094 613.613281 488.085938 C 609.71875 489.332031 605.824219 490.582031 601.785156 491.710938 C 592.035156 461.351562 580.058594 431.703125 566.269531 402.855469 C 579.644531 374.457031 590.9375 345.195312 600.386719 315.28125 Z M 442.519531 175.480469 C 494.378906 130.382812 542.703125 112.707031 564.722656 125.363281 C 588.261719 138.878906 597.324219 193.453125 582.554688 265.164062 C 581.574219 269.886719 580.59375 274.492188 579.347656 279.097656 C 548.410156 272.144531 517.085938 267.125 485.582031 264.332031 C 467.484375 238.398438 447.691406 213.621094 426.234375 190.363281 C 431.671875 185.222656 436.964844 180.351562 442.519531 175.480469 Z M 405.371094 211.691406 C 419.992188 227.554688 433.785156 244.25 446.59375 261.511719 C 419.011719 260.261719 391.285156 260.261719 363.707031 261.511719 C 377.347656 243.566406 391.433594 226.871094 405.371094 211.691406 Z M 243.761719 126.34375 C 267.179688 112.707031 319.128906 132.195312 373.871094 180.648438 C 377.347656 183.707031 380.824219 187.0625 384.449219 190.390625 C 362.84375 213.621094 342.933594 238.398438 324.6875 264.304688 C 293.214844 267.09375 262.007812 271.96875 231.070312 278.800781 C 229.257812 271.699219 227.742188 264.453125 226.199219 257.203125 C 213.09375 189.796875 221.738281 139 243.761719 126.34375 Z M 185.957031 322.648438 C 193.894531 319.855469 201.976562 317.359375 210.058594 314.984375 C 219.539062 345.195312 230.953125 374.871094 244.175781 403.539062 C 230.804688 432.652344 219.242188 462.714844 209.644531 493.34375 L 209.613281 493.375 C 203.761719 491.710938 198.054688 489.898438 192.347656 487.9375 C 162.6875 478.609375 128.957031 463.84375 104.589844 444.507812 C 90.53125 434.761719 81.050781 419.730469 78.40625 402.855469 C 78.40625 377.367188 122.421875 344.777344 185.957031 322.648438 Z M 185.957031 322.648438 " fill-opacity="1" fill-rule="nonzero"/></g><g clip-path="url(#3bc9ec4204)"><g clip-path="url(#f6f28d51b7)"><path fill="#53c1de" d="M 309.230469 273.429688 L 332.953125 273.429688 L 332.953125 283.722656 L 309.230469 283.722656 Z M 309.230469 273.429688 " fill-opacity="1" fill-rule="nonzero"/></g></g></svg>