<svg xmlns="http://www.w3.org/2000/svg" xmlns:xlink="http://www.w3.org/1999/xlink" width="1080" zoomAndPan="magnify" viewBox="0 0 810 809.999993" height="1080" preserveAspectRatio="xMidYMid meet" version="1.0"><defs><clipPath id="b6f17ea025"><path d="M 329.199219 273.429688 L 332.949219 273.429688 L 332.949219 277.179688 L 329.199219 277.179688 Z M 329.199219 273.429688 " clip-rule="nonzero"/></clipPath><clipPath id="ca8f019dee"><path d="M 331.074219 273.429688 C 331.574219 273.429688 332.050781 273.628906 332.402344 273.980469 C 332.753906 274.332031 332.949219 274.808594 332.949219 275.304688 C 332.949219 275.804688 332.753906 276.28125 332.402344 276.632812 C 332.050781 276.984375 331.574219 277.179688 331.074219 277.179688 C 330.578125 277.179688 330.101562 276.984375 329.75 276.632812 C 329.398438 276.28125 329.199219 275.804688 329.199219 275.304688 C 329.199219 274.808594 329.398438 274.332031 329.75 273.980469 C 330.101562 273.628906 330.578125 273.429688 331.074219 273.429688 Z M 331.074219 273.429688 " clip-rule="nonzero"/></clipPath><clipPath id="afc471631e"><path d="M 93.640625 93.640625 L 715 93.640625 L 715 715 L 93.640625 715 Z M 93.640625 93.640625 " clip-rule="nonzero"/></clipPath><clipPath id="6e5b60104c"><path d="M 93.640625 93.640625 L 715 93.640625 L 715 252 L 93.640625 252 Z M 93.640625 93.640625 " clip-rule="nonzero"/></clipPath><clipPath id="469f189b85"><path d="M 93.640625 93.640625 L 404 93.640625 L 404 715 L 93.640625 715 Z M 93.640625 93.640625 " clip-rule="nonzero"/></clipPath><clipPath id="8abe9049d7"><path d="M 93.640625 93.640625 L 404 93.640625 L 404 252 L 93.640625 252 Z M 93.640625 93.640625 " clip-rule="nonzero"/></clipPath></defs><g clip-path="url(#b6f17ea025)"><g clip-path="url(#ca8f019dee)"><path fill="#53c1de" d="M 329.199219 273.429688 L 332.949219 273.429688 L 332.949219 277.179688 L 329.199219 277.179688 Z M 329.199219 273.429688 " fill-opacity="1" fill-rule="nonzero"/></g></g><g clip-path="url(#afc471631e)"><path fill="#5e94ff" d="M 171.816406 92.195312 C 127.84375 92.195312 92.195312 127.84375 92.195312 171.816406 L 92.195312 635.074219 C 92.195312 679.046875 127.84375 714.695312 171.816406 714.695312 L 635.074219 714.695312 C 679.046875 714.695312 714.695312 679.046875 714.695312 635.074219 L 714.695312 171.816406 C 714.695312 127.84375 679.046875 92.195312 635.074219 92.195312 Z M 171.816406 92.195312 " fill-opacity="1" fill-rule="nonzero"/></g><g clip-path="url(#6e5b60104c)"><path fill="#4dc4ff" d="M 171.816406 92.195312 C 127.84375 92.195312 92.195312 127.84375 92.195312 171.816406 L 92.195312 229.722656 C 92.195312 241.714844 101.917969 251.4375 113.910156 251.4375 L 692.980469 251.4375 C 704.972656 251.4375 714.695312 241.714844 714.695312 229.722656 L 714.695312 171.816406 C 714.695312 127.84375 679.046875 92.195312 635.074219 92.195312 Z M 171.816406 92.195312 " fill-opacity="1" fill-rule="nonzero"/></g><g clip-path="url(#469f189b85)"><path fill="#5485e5" d="M 403.445312 92.195312 L 403.445312 714.695312 L 171.816406 714.695312 C 127.84375 714.695312 92.195312 679.046875 92.195312 635.074219 L 92.195312 171.816406 C 92.195312 127.84375 127.84375 92.195312 171.816406 92.195312 Z M 403.445312 92.195312 " fill-opacity="1" fill-rule="evenodd"/></g><g clip-path="url(#8abe9049d7)"><path fill="#45b0e5" d="M 403.445312 92.195312 L 403.445312 251.4375 L 113.910156 251.4375 C 101.917969 251.4375 92.195312 241.714844 92.195312 229.722656 L 92.195312 171.816406 C 92.195312 127.84375 127.84375 92.195312 171.816406 92.195312 Z M 403.445312 92.195312 " fill-opacity="1" fill-rule="evenodd"/></g><path fill="#eceff1" d="M 425.160156 316.585938 C 425.160156 304.589844 434.882812 294.867188 446.875 294.867188 L 606.117188 294.867188 C 618.113281 294.867188 627.835938 304.589844 627.835938 316.585938 C 627.835938 328.578125 618.113281 338.300781 606.117188 338.300781 L 468.589844 338.300781 L 468.589844 439.636719 L 606.117188 439.636719 C 618.113281 439.636719 627.835938 449.359375 627.835938 461.351562 L 627.835938 606.117188 C 627.835938 618.113281 618.113281 627.835938 606.117188 627.835938 L 446.875 627.835938 C 434.882812 627.835938 425.160156 618.113281 425.160156 606.117188 C 425.160156 594.125 434.882812 584.402344 446.875 584.402344 L 584.402344 584.402344 L 584.402344 483.066406 L 446.875 483.066406 C 434.882812 483.066406 425.160156 473.34375 425.160156 461.351562 Z M 425.160156 316.585938 " fill-opacity="1" fill-rule="evenodd"/><path fill="#cfd8dc" d="M 150.101562 316.585938 C 150.101562 304.589844 159.824219 294.867188 171.816406 294.867188 L 374.492188 294.867188 C 386.484375 294.867188 396.207031 304.589844 396.207031 316.585938 C 396.207031 328.578125 386.484375 338.300781 374.492188 338.300781 L 294.867188 338.300781 L 294.867188 606.117188 C 294.867188 618.113281 285.148438 627.835938 273.152344 627.835938 C 261.160156 627.835938 251.4375 618.113281 251.4375 606.117188 L 251.4375 338.300781 L 171.816406 338.300781 C 159.824219 338.300781 150.101562 328.578125 150.101562 316.585938 Z M 150.101562 316.585938 " fill-opacity="1" fill-rule="evenodd"/></svg>