<svg xmlns="http://www.w3.org/2000/svg" xmlns:xlink="http://www.w3.org/1999/xlink" width="1080" zoomAndPan="magnify" viewBox="0 0 810 809.999993" height="1080" preserveAspectRatio="xMidYMid meet" version="1.0"><defs><clipPath id="5c7d0e24f1"><path d="M 329.199219 273.429688 L 332.949219 273.429688 L 332.949219 277.179688 L 329.199219 277.179688 Z M 329.199219 273.429688 " clip-rule="nonzero"/></clipPath><clipPath id="8e1678196b"><path d="M 331.074219 273.429688 C 331.574219 273.429688 332.050781 273.628906 332.402344 273.980469 C 332.753906 274.332031 332.949219 274.808594 332.949219 275.304688 C 332.949219 275.804688 332.753906 276.28125 332.402344 276.632812 C 332.050781 276.984375 331.574219 277.179688 331.074219 277.179688 C 330.578125 277.179688 330.101562 276.984375 329.75 276.632812 C 329.398438 276.28125 329.199219 275.804688 329.199219 275.304688 C 329.199219 274.808594 329.398438 274.332031 329.75 273.980469 C 330.101562 273.628906 330.578125 273.429688 331.074219 273.429688 Z M 331.074219 273.429688 " clip-rule="nonzero"/></clipPath><clipPath id="33ecb2f304"><path d="M 81 142.265625 L 540 142.265625 L 540 293 L 81 293 Z M 81 142.265625 " clip-rule="nonzero"/></clipPath></defs><g clip-path="url(#5c7d0e24f1)"><g clip-path="url(#8e1678196b)"><path fill="#53c1de" d="M 329.199219 273.429688 L 332.949219 273.429688 L 332.949219 277.179688 L 329.199219 277.179688 Z M 329.199219 273.429688 " fill-opacity="1" fill-rule="nonzero"/></g></g><path fill="#949494" d="M 119.492188 230.640625 L 119.492188 452.839844 L 157.699219 431.339844 L 157.699219 252.140625 Z M 119.492188 230.640625 " fill-opacity="1" fill-rule="nonzero"/><path fill="#efefef" d="M 81.28125 431.339844 L 81.28125 163.742188 L 308.140625 292.761719 L 308.140625 338.160156 L 119.492188 230.640625 L 119.492188 452.839844 Z M 81.28125 431.339844 " fill-opacity="1" fill-rule="nonzero"/><path fill="#949494" d="M 539.78125 163.738281 L 539.78125 431.335938 L 386.960938 517.34375 L 348.75 493.457031 L 501.570312 407.449219 L 501.570312 228.25 L 308.140625 338.15625 L 308.140625 292.757812 Z M 539.78125 163.738281 " fill-opacity="1" fill-rule="nonzero"/><g clip-path="url(#33ecb2f304)"><path fill="#d6d6d6" d="M 501.570312 142.234375 L 310.53125 249.753906 L 119.492188 142.234375 L 81.28125 163.738281 L 308.140625 292.761719 L 539.78125 163.738281 Z M 501.570312 142.234375 " fill-opacity="1" fill-rule="nonzero"/></g><path fill="#efefef" d="M 463.355469 249.753906 L 463.355469 385.941406 L 501.570312 407.449219 L 501.570312 228.25 Z M 463.355469 249.753906 " fill-opacity="1" fill-rule="nonzero"/><path fill="#d6d6d6" d="M 272.324219 493.460938 L 463.355469 385.941406 L 501.570312 407.449219 L 348.75 493.460938 L 499.183594 579.46875 L 652.027344 493.460938 L 690.214844 514.960938 L 499.183594 622.472656 Z M 272.324219 493.460938 " fill-opacity="1" fill-rule="nonzero"/><path fill="#efefef" d="M 272.324219 493.460938 L 272.324219 538.851562 L 499.183594 667.886719 L 499.183594 622.472656 Z M 272.324219 493.460938 " fill-opacity="1" fill-rule="nonzero"/><path fill="#efefef" d="M 690.214844 514.960938 L 690.214844 381.164062 L 652.027344 359.660156 L 652.027344 493.460938 Z M 690.214844 514.960938 " fill-opacity="1" fill-rule="nonzero"/><path fill="#949494" d="M 499.183594 622.472656 L 690.214844 514.960938 L 690.214844 381.164062 L 728.425781 359.660156 L 728.425781 538.851562 L 499.183594 667.886719 Z M 499.183594 622.472656 " fill-opacity="1" fill-rule="nonzero"/><path fill="#d6d6d6" d="M 728.425781 359.660156 L 690.214844 381.164062 L 652.027344 359.660156 L 690.214844 338.160156 Z M 728.425781 359.660156 " fill-opacity="1" fill-rule="nonzero"/><path fill="#949494" d="M 690.214844 338.160156 L 690.214844 292.761719 L 728.425781 271.257812 L 728.425781 316.652344 Z M 690.214844 338.160156 " fill-opacity="1" fill-rule="nonzero"/><path fill="#efefef" d="M 690.214844 292.761719 L 690.214844 338.160156 L 652.027344 316.652344 L 652.027344 271.257812 Z M 690.214844 292.761719 " fill-opacity="1" fill-rule="nonzero"/><path fill="#d6d6d6" d="M 728.425781 271.257812 L 690.214844 292.761719 L 652.027344 271.257812 L 690.214844 249.753906 Z M 728.425781 271.257812 " fill-opacity="1" fill-rule="nonzero"/></svg>