<svg xmlns="http://www.w3.org/2000/svg" xmlns:xlink="http://www.w3.org/1999/xlink" width="1080" zoomAndPan="magnify" viewBox="0 0 810 809.999993" height="1080" preserveAspectRatio="xMidYMid meet" version="1.0"><defs><clipPath id="17ba28365f"><path d="M 329.199219 273.429688 L 332.949219 273.429688 L 332.949219 277.179688 L 329.199219 277.179688 Z M 329.199219 273.429688 " clip-rule="nonzero"/></clipPath><clipPath id="cd8d0d1271"><path d="M 331.074219 273.429688 C 331.574219 273.429688 332.050781 273.628906 332.402344 273.980469 C 332.753906 274.332031 332.949219 274.808594 332.949219 275.304688 C 332.949219 275.804688 332.753906 276.28125 332.402344 276.632812 C 332.050781 276.984375 331.574219 277.179688 331.074219 277.179688 C 330.578125 277.179688 330.101562 276.984375 329.75 276.632812 C 329.398438 276.28125 329.199219 275.804688 329.199219 275.304688 C 329.199219 274.808594 329.398438 274.332031 329.75 273.980469 C 330.101562 273.628906 330.578125 273.429688 331.074219 273.429688 Z M 331.074219 273.429688 " clip-rule="nonzero"/></clipPath><clipPath id="16e418c108"><path d="M 116.292969 90.332031 L 693.792969 90.332031 L 693.792969 719.582031 L 116.292969 719.582031 Z M 116.292969 90.332031 " clip-rule="nonzero"/></clipPath></defs><g clip-path="url(#17ba28365f)"><g clip-path="url(#cd8d0d1271)"><path fill="#53c1de" d="M 329.199219 273.429688 L 332.949219 273.429688 L 332.949219 277.179688 L 329.199219 277.179688 Z M 329.199219 273.429688 " fill-opacity="1" fill-rule="nonzero"/></g></g><g clip-path="url(#16e418c108)"><path fill="#2196f3" d="M 690.148438 94.632812 C 688.902344 93.261719 687.433594 92.199219 685.738281 91.449219 C 684.046875 90.703125 682.273438 90.328125 680.417969 90.332031 L 129.664062 90.332031 C 129.207031 90.328125 128.75 90.351562 128.292969 90.398438 C 127.835938 90.441406 127.382812 90.511719 126.9375 90.605469 C 126.488281 90.699219 126.042969 90.8125 125.609375 90.953125 C 125.171875 91.09375 124.742188 91.253906 124.324219 91.4375 C 123.902344 91.625 123.496094 91.828125 123.097656 92.054688 C 122.699219 92.285156 122.3125 92.53125 121.941406 92.796875 C 121.570312 93.066406 121.214844 93.351562 120.871094 93.65625 C 120.527344 93.960938 120.203125 94.285156 119.894531 94.621094 C 119.585938 94.960938 119.296875 95.316406 119.027344 95.683594 C 118.753906 96.054688 118.503906 96.4375 118.273438 96.832031 C 118.042969 97.226562 117.832031 97.636719 117.644531 98.054688 C 117.457031 98.46875 117.289062 98.898438 117.144531 99.332031 C 117.003906 99.765625 116.882812 100.207031 116.785156 100.65625 C 116.6875 101.105469 116.613281 101.554688 116.5625 102.011719 C 116.511719 102.464844 116.488281 102.921875 116.484375 103.382812 C 116.484375 103.839844 116.503906 104.296875 116.550781 104.753906 L 169.003906 629.125 C 169.128906 630.386719 169.429688 631.601562 169.90625 632.773438 C 170.382812 633.941406 171.011719 635.023438 171.800781 636.011719 C 172.589844 637 173.503906 637.855469 174.539062 638.582031 C 175.578125 639.304688 176.695312 639.867188 177.894531 640.269531 L 413.933594 718.925781 C 415.304688 719.371094 416.710938 719.589844 418.15625 719.582031 C 419.746094 719.582031 421.28125 719.300781 422.769531 718.742188 L 632.582031 640.085938 C 633.730469 639.660156 634.800781 639.085938 635.789062 638.363281 C 636.777344 637.636719 637.648438 636.789062 638.398438 635.820312 C 639.148438 634.851562 639.753906 633.800781 640.207031 632.664062 C 640.664062 631.523438 640.953125 630.347656 641.078125 629.125 L 693.53125 104.753906 C 693.710938 102.902344 693.507812 101.09375 692.917969 99.332031 C 692.328125 97.570312 691.40625 96.003906 690.148438 94.632812 Z M 690.148438 94.632812 " fill-opacity="1" fill-rule="nonzero"/></g><path fill="#fafafa" d="M 418.15625 588.488281 C 416.738281 588.484375 415.359375 588.269531 414.011719 587.832031 L 295.992188 548.503906 C 294.898438 548.140625 293.871094 547.640625 292.90625 547.003906 C 291.945312 546.371094 291.082031 545.621094 290.320312 544.757812 C 289.554688 543.894531 288.914062 542.945312 288.402344 541.914062 C 287.886719 540.882812 287.515625 539.800781 287.285156 538.671875 L 274.171875 473.125 C 274 472.28125 273.910156 471.429688 273.90625 470.566406 C 273.902344 469.707031 273.980469 468.855469 274.144531 468.007812 C 274.308594 467.164062 274.554688 466.339844 274.878906 465.542969 C 275.203125 464.746094 275.605469 463.988281 276.078125 463.269531 C 276.554688 462.550781 277.09375 461.886719 277.699219 461.273438 C 278.304688 460.664062 278.964844 460.117188 279.679688 459.632812 C 280.394531 459.152344 281.148438 458.742188 281.941406 458.410156 C 282.734375 458.078125 283.554688 457.824219 284.398438 457.652344 C 285.242188 457.480469 286.097656 457.390625 286.957031 457.386719 C 287.820312 457.382812 288.671875 457.460938 289.519531 457.625 C 290.363281 457.789062 291.183594 458.035156 291.984375 458.359375 C 292.78125 458.6875 293.539062 459.085938 294.257812 459.5625 C 294.976562 460.035156 295.640625 460.578125 296.253906 461.183594 C 296.863281 461.789062 297.410156 462.449219 297.894531 463.164062 C 298.375 463.875 298.78125 464.628906 299.117188 465.425781 C 299.449219 466.21875 299.703125 467.039062 299.875 467.882812 L 311.492188 525.957031 L 417.894531 561.484375 L 511.417969 526.429688 L 559.933594 247.644531 L 260.796875 247.644531 C 259.933594 247.644531 259.082031 247.558594 258.238281 247.390625 C 257.394531 247.222656 256.574219 246.976562 255.777344 246.644531 C 254.984375 246.316406 254.226562 245.914062 253.511719 245.433594 C 252.796875 244.957031 252.132812 244.414062 251.523438 243.804688 C 250.914062 243.195312 250.371094 242.535156 249.894531 241.816406 C 249.414062 241.101562 249.011719 240.347656 248.679688 239.550781 C 248.351562 238.757812 248.101562 237.9375 247.933594 237.09375 C 247.765625 236.246094 247.683594 235.394531 247.683594 234.535156 C 247.683594 233.675781 247.765625 232.820312 247.933594 231.976562 C 248.101562 231.132812 248.351562 230.3125 248.679688 229.519531 C 249.011719 228.722656 249.414062 227.96875 249.894531 227.25 C 250.371094 226.535156 250.914062 225.875 251.523438 225.265625 C 252.132812 224.65625 252.796875 224.113281 253.511719 223.632812 C 254.226562 223.15625 254.984375 222.753906 255.777344 222.421875 C 256.574219 222.09375 257.394531 221.84375 258.238281 221.675781 C 259.082031 221.507812 259.933594 221.425781 260.796875 221.425781 L 575.511719 221.425781 C 575.992188 221.425781 576.464844 221.449219 576.941406 221.503906 C 577.414062 221.554688 577.886719 221.628906 578.351562 221.734375 C 578.816406 221.835938 579.277344 221.964844 579.726562 222.117188 C 580.179688 222.269531 580.621094 222.445312 581.054688 222.648438 C 581.488281 222.847656 581.90625 223.074219 582.316406 223.320312 C 582.722656 223.566406 583.117188 223.835938 583.496094 224.125 C 583.875 224.414062 584.238281 224.722656 584.582031 225.054688 C 584.925781 225.382812 585.253906 225.730469 585.558594 226.09375 C 585.867188 226.460938 586.152344 226.839844 586.417969 227.238281 C 586.683594 227.632812 586.925781 228.042969 587.148438 228.464844 C 587.371094 228.886719 587.566406 229.320312 587.738281 229.765625 C 587.914062 230.210938 588.0625 230.664062 588.1875 231.125 C 588.3125 231.582031 588.410156 232.050781 588.484375 232.519531 C 588.554688 232.992188 588.605469 233.464844 588.625 233.941406 C 588.648438 234.417969 588.640625 234.894531 588.613281 235.371094 C 588.582031 235.847656 588.523438 236.320312 588.441406 236.789062 L 535.992188 538.304688 C 535.792969 539.429688 535.457031 540.507812 534.976562 541.546875 C 534.496094 542.582031 533.894531 543.539062 533.164062 544.417969 C 532.433594 545.296875 531.605469 546.066406 530.675781 546.726562 C 529.746094 547.390625 528.746094 547.921875 527.675781 548.320312 L 422.769531 587.648438 C 421.28125 588.207031 419.746094 588.488281 418.15625 588.488281 Z M 418.15625 588.488281 " fill-opacity="1" fill-rule="nonzero"/><path fill="#fafafa" d="M 549.285156 378.738281 L 273.910156 378.738281 C 273.046875 378.738281 272.195312 378.652344 271.351562 378.484375 C 270.507812 378.316406 269.6875 378.070312 268.890625 377.738281 C 268.097656 377.410156 267.339844 377.007812 266.625 376.527344 C 265.910156 376.050781 265.246094 375.507812 264.636719 374.898438 C 264.027344 374.289062 263.484375 373.628906 263.007812 372.910156 C 262.527344 372.195312 262.125 371.441406 261.792969 370.644531 C 261.464844 369.851562 261.214844 369.03125 261.046875 368.1875 C 260.878906 367.339844 260.796875 366.488281 260.796875 365.628906 C 260.796875 364.769531 260.878906 363.914062 261.046875 363.070312 C 261.214844 362.226562 261.464844 361.40625 261.792969 360.613281 C 262.125 359.816406 262.527344 359.0625 263.007812 358.34375 C 263.484375 357.628906 264.027344 356.96875 264.636719 356.359375 C 265.246094 355.75 265.910156 355.207031 266.625 354.726562 C 267.339844 354.25 268.097656 353.847656 268.890625 353.515625 C 269.6875 353.1875 270.507812 352.9375 271.351562 352.769531 C 272.195312 352.601562 273.046875 352.519531 273.910156 352.519531 L 549.285156 352.519531 C 550.148438 352.519531 551 352.601562 551.84375 352.769531 C 552.691406 352.9375 553.511719 353.1875 554.304688 353.515625 C 555.101562 353.847656 555.855469 354.25 556.574219 354.726562 C 557.289062 355.207031 557.949219 355.75 558.558594 356.359375 C 559.167969 356.96875 559.710938 357.628906 560.191406 358.34375 C 560.667969 359.0625 561.074219 359.816406 561.402344 360.613281 C 561.730469 361.40625 561.980469 362.226562 562.148438 363.070312 C 562.316406 363.914062 562.398438 364.769531 562.398438 365.628906 C 562.398438 366.488281 562.316406 367.339844 562.148438 368.1875 C 561.980469 369.03125 561.730469 369.851562 561.402344 370.644531 C 561.074219 371.441406 560.667969 372.195312 560.191406 372.910156 C 559.710938 373.628906 559.167969 374.289062 558.558594 374.898438 C 557.949219 375.507812 557.289062 376.050781 556.574219 376.527344 C 555.855469 377.007812 555.101562 377.410156 554.304688 377.738281 C 553.511719 378.070312 552.691406 378.316406 551.84375 378.484375 C 551 378.652344 550.148438 378.738281 549.285156 378.738281 Z M 549.285156 378.738281 " fill-opacity="1" fill-rule="nonzero"/></svg>