<svg xmlns="http://www.w3.org/2000/svg" xmlns:xlink="http://www.w3.org/1999/xlink" width="1080" zoomAndPan="magnify" viewBox="0 0 810 809.999993" height="1080" preserveAspectRatio="xMidYMid meet" version="1.0"><defs><clipPath id="b34038419f"><path d="M 329.199219 273.429688 L 332.949219 273.429688 L 332.949219 277.179688 L 329.199219 277.179688 Z M 329.199219 273.429688 " clip-rule="nonzero"/></clipPath><clipPath id="0c0374acee"><path d="M 331.074219 273.429688 C 331.574219 273.429688 332.050781 273.628906 332.402344 273.980469 C 332.753906 274.332031 332.949219 274.808594 332.949219 275.304688 C 332.949219 275.804688 332.753906 276.28125 332.402344 276.632812 C 332.050781 276.984375 331.574219 277.179688 331.074219 277.179688 C 330.578125 277.179688 330.101562 276.984375 329.75 276.632812 C 329.398438 276.28125 329.199219 275.804688 329.199219 275.304688 C 329.199219 274.808594 329.398438 274.332031 329.75 273.980469 C 330.101562 273.628906 330.578125 273.429688 331.074219 273.429688 Z M 331.074219 273.429688 " clip-rule="nonzero"/></clipPath><clipPath id="803be32d1e"><path d="M 82 89.167969 L 712.5 89.167969 L 712.5 720 L 82 720 Z M 82 89.167969 " clip-rule="nonzero"/></clipPath><clipPath id="5157eaf582"><path d="M 82 89.167969 L 399 89.167969 L 399 720 L 82 720 Z M 82 89.167969 " clip-rule="nonzero"/></clipPath></defs><g clip-path="url(#b34038419f)"><g clip-path="url(#0c0374acee)"><path fill="#53c1de" d="M 329.199219 273.429688 L 332.949219 273.429688 L 332.949219 277.179688 L 329.199219 277.179688 Z M 329.199219 273.429688 " fill-opacity="1" fill-rule="nonzero"/></g></g><g clip-path="url(#803be32d1e)"><path fill="#ffc44d" d="M 104.496094 87.699219 C 98.179688 87.699219 92.164062 90.410156 87.984375 95.148438 C 83.800781 99.886719 81.855469 106.191406 82.640625 112.460938 L 141.382812 582.414062 C 142.296875 589.722656 146.800781 596.089844 153.390625 599.382812 L 388.367188 716.871094 C 394.566406 719.972656 401.871094 719.972656 408.070312 716.871094 L 643.046875 599.382812 C 649.636719 596.089844 654.140625 589.722656 655.054688 582.414062 L 713.796875 112.460938 C 714.582031 106.191406 712.636719 99.886719 708.457031 95.148438 C 704.273438 90.410156 698.257812 87.699219 691.941406 87.699219 Z M 104.496094 87.699219 " fill-opacity="1" fill-rule="nonzero"/></g><g clip-path="url(#5157eaf582)"><path fill="#e5b045" d="M 398.21875 87.699219 L 398.21875 719.199219 C 394.84375 719.199219 391.46875 718.421875 388.367188 716.871094 L 153.390625 599.382812 C 146.800781 596.089844 142.296875 589.722656 141.382812 582.414062 L 82.640625 112.460938 C 81.855469 106.191406 83.800781 99.886719 87.984375 95.148438 C 92.164062 90.410156 98.179688 87.699219 104.496094 87.699219 Z M 398.21875 87.699219 " fill-opacity="1" fill-rule="evenodd"/></g><path fill="#cfd8dc" d="M 354.164062 175.816406 C 366.328125 175.816406 376.191406 185.675781 376.191406 197.84375 L 376.191406 579.679688 C 376.191406 587.535156 372.011719 594.792969 365.21875 598.734375 C 358.429688 602.675781 350.050781 602.703125 343.234375 598.808594 L 240.433594 540.0625 C 229.867188 534.027344 226.199219 520.570312 232.234375 510.007812 C 238.273438 499.445312 251.726562 495.773438 262.292969 501.808594 L 332.132812 541.71875 L 332.132812 197.84375 C 332.132812 185.675781 341.996094 175.816406 354.164062 175.816406 Z M 354.164062 175.816406 " fill-opacity="1" fill-rule="evenodd"/><path fill="#eceff1" d="M 420.253906 197.84375 C 420.253906 185.675781 430.117188 175.816406 442.28125 175.816406 L 589.144531 175.816406 C 601.308594 175.816406 611.171875 185.675781 611.171875 197.84375 C 611.171875 210.011719 601.308594 219.871094 589.144531 219.871094 L 464.3125 219.871094 L 464.3125 361.300781 L 569.679688 337.886719 C 576.542969 336.359375 583.722656 338.203125 589.003906 342.847656 C 594.285156 347.496094 597.03125 354.378906 596.394531 361.382812 L 581.707031 522.929688 C 581.019531 530.53125 576.445312 537.230469 569.621094 540.640625 L 452.132812 599.382812 C 441.25 604.828125 428.019531 600.414062 422.578125 589.53125 C 417.136719 578.648438 421.546875 565.417969 432.429688 559.976562 L 538.941406 506.722656 L 549.789062 387.4375 L 447.0625 410.265625 C 440.539062 411.714844 433.707031 410.128906 428.5 405.945312 C 423.285156 401.765625 420.253906 395.445312 420.253906 388.761719 Z M 420.253906 197.84375 " fill-opacity="1" fill-rule="evenodd"/></svg>