<svg xmlns="http://www.w3.org/2000/svg" xmlns:xlink="http://www.w3.org/1999/xlink" width="1000" zoomAndPan="magnify" viewBox="0 0 750 262.499992" height="350" preserveAspectRatio="xMidYMid meet" version="1.0"><defs><g/></defs><g fill="#eb3d00" fill-opacity="1"><g transform="translate(1.680684, 165.863195)"><g><path d="M 37.21875 -57.515625 L 31.90625 -40.375 L 49.609375 -40.375 L 44.3125 -57.515625 C 44.007812 -58.191406 43.6875 -58.675781 43.34375 -58.96875 C 43.007812 -59.269531 42.617188 -59.421875 42.171875 -59.421875 L 39.359375 -59.421875 C 38.898438 -59.421875 38.5 -59.269531 38.15625 -58.96875 C 37.820312 -58.675781 37.507812 -58.191406 37.21875 -57.515625 Z M 30.78125 -4.0625 C 30.78125 -2.632812 30.460938 -1.597656 29.828125 -0.953125 C 29.191406 -0.316406 28.15625 0 26.71875 0 L 10.15625 0 C 8.71875 0 7.679688 -0.316406 7.046875 -0.953125 C 6.410156 -1.597656 6.09375 -2.632812 6.09375 -4.0625 L 6.09375 -33.828125 C 6.09375 -36.085938 6.445312 -38.679688 7.15625 -41.609375 C 7.875 -44.546875 8.984375 -47.96875 10.484375 -51.875 L 20.296875 -77.46875 C 20.742188 -78.75 21.4375 -79.6875 22.375 -80.28125 C 23.320312 -80.882812 24.546875 -81.1875 26.046875 -81.1875 L 56.375 -81.1875 C 57.8125 -81.1875 59 -80.882812 59.9375 -80.28125 C 60.875 -79.6875 61.566406 -78.75 62.015625 -77.46875 L 71.828125 -51.875 C 73.335938 -47.96875 74.445312 -44.546875 75.15625 -41.609375 C 75.875 -38.679688 76.234375 -36.085938 76.234375 -33.828125 L 76.234375 -4.0625 C 76.234375 -2.632812 75.910156 -1.597656 75.265625 -0.953125 C 74.628906 -0.316406 73.597656 0 72.171875 0 L 55.140625 0 C 53.640625 0 52.53125 -0.316406 51.8125 -0.953125 C 51.101562 -1.597656 50.75 -2.632812 50.75 -4.0625 L 50.75 -19.84375 L 30.78125 -19.84375 Z M 30.78125 -4.0625 "/></g></g></g><g fill="#eb3d00" fill-opacity="1"><g transform="translate(83.999677, 165.863195)"><g><path d="M 69.234375 0 L 11.84375 0 C 10.414062 0 9.378906 -0.316406 8.734375 -0.953125 C 8.097656 -1.597656 7.78125 -2.632812 7.78125 -4.0625 L 7.78125 -77.125 C 7.78125 -78.5625 8.097656 -79.597656 8.734375 -80.234375 C 9.378906 -80.867188 10.414062 -81.1875 11.84375 -81.1875 L 29.3125 -81.1875 C 30.75 -81.1875 31.785156 -80.867188 32.421875 -80.234375 C 33.054688 -79.597656 33.375 -78.5625 33.375 -77.125 L 33.375 -21.3125 L 48.828125 -21.3125 L 48.828125 -39.578125 C 48.828125 -41.003906 49.144531 -42.035156 49.78125 -42.671875 C 50.425781 -43.316406 51.460938 -43.640625 52.890625 -43.640625 L 69.234375 -43.640625 C 70.660156 -43.640625 71.691406 -43.316406 72.328125 -42.671875 C 72.972656 -42.035156 73.296875 -41.003906 73.296875 -39.578125 L 73.296875 -4.0625 C 73.296875 -2.632812 72.972656 -1.597656 72.328125 -0.953125 C 71.691406 -0.316406 70.660156 0 69.234375 0 Z M 69.234375 0 "/></g></g></g><g fill="#eb3d00" fill-opacity="1"><g transform="translate(162.371863, 165.863195)"><g><path d="M 64.15625 0 L 11.84375 0 C 10.414062 0 9.378906 -0.316406 8.734375 -0.953125 C 8.097656 -1.597656 7.78125 -2.632812 7.78125 -4.0625 L 7.78125 -77.125 C 7.78125 -78.5625 8.097656 -79.597656 8.734375 -80.234375 C 9.378906 -80.867188 10.414062 -81.1875 11.84375 -81.1875 L 64.15625 -81.1875 C 65.59375 -81.1875 66.628906 -80.867188 67.265625 -80.234375 C 67.898438 -79.597656 68.21875 -78.5625 68.21875 -77.125 L 68.21875 -63.9375 C 68.21875 -62.507812 67.898438 -61.472656 67.265625 -60.828125 C 66.628906 -60.191406 65.59375 -59.875 64.15625 -59.875 L 33.046875 -59.875 L 33.046875 -51.203125 L 55.03125 -51.203125 C 56.457031 -51.203125 57.488281 -50.878906 58.125 -50.234375 C 58.769531 -49.597656 59.09375 -48.566406 59.09375 -47.140625 L 59.09375 -35.0625 C 59.09375 -33.632812 58.769531 -32.601562 58.125 -31.96875 C 57.488281 -31.332031 56.457031 -31.015625 55.03125 -31.015625 L 33.046875 -31.015625 L 33.046875 -21.3125 L 64.15625 -21.3125 C 65.59375 -21.3125 66.628906 -20.988281 67.265625 -20.34375 C 67.898438 -19.707031 68.21875 -18.675781 68.21875 -17.25 L 68.21875 -4.0625 C 68.21875 -2.632812 67.898438 -1.597656 67.265625 -0.953125 C 66.628906 -0.316406 65.59375 0 64.15625 0 Z M 64.15625 0 "/></g></g></g><g fill="#eb3d00" fill-opacity="1"><g transform="translate(236.120667, 165.863195)"><g><path d="M 32.03125 -4.0625 C 32.03125 -2.632812 31.707031 -1.597656 31.0625 -0.953125 C 30.425781 -0.316406 29.394531 0 27.96875 0 L 10.828125 0 C 9.398438 0 8.363281 -0.316406 7.71875 -0.953125 C 7.082031 -1.597656 6.765625 -2.632812 6.765625 -4.0625 L 6.765625 -16.125 C 6.765625 -19.582031 7.0625 -22.175781 7.65625 -23.90625 C 8.257812 -25.632812 9.390625 -27.664062 11.046875 -30 L 20.1875 -42.28125 L 11.046875 -54.578125 C 9.316406 -56.910156 8.171875 -58.941406 7.609375 -60.671875 C 7.046875 -62.398438 6.765625 -64.992188 6.765625 -68.453125 L 6.765625 -77.125 C 6.765625 -78.5625 7.082031 -79.597656 7.71875 -80.234375 C 8.363281 -80.867188 9.398438 -81.1875 10.828125 -81.1875 L 28.1875 -81.1875 C 29.613281 -81.1875 30.644531 -80.867188 31.28125 -80.234375 C 31.925781 -79.597656 32.25 -78.5625 32.25 -77.125 L 32.25 -69.34375 C 32.25 -68.59375 32.285156 -67.804688 32.359375 -66.984375 C 32.429688 -66.160156 32.734375 -65.367188 33.265625 -64.609375 L 38.234375 -57.515625 C 38.609375 -56.910156 39 -56.4375 39.40625 -56.09375 C 39.820312 -55.757812 40.332031 -55.59375 40.9375 -55.59375 L 42.28125 -55.59375 C 42.882812 -55.59375 43.375 -55.757812 43.75 -56.09375 C 44.125 -56.4375 44.539062 -56.910156 45 -57.515625 L 50.0625 -64.609375 C 50.59375 -65.367188 50.894531 -66.160156 50.96875 -66.984375 C 51.039062 -67.804688 51.078125 -68.59375 51.078125 -69.34375 L 51.078125 -77.125 C 51.078125 -78.5625 51.394531 -79.597656 52.03125 -80.234375 C 52.675781 -80.867188 53.710938 -81.1875 55.140625 -81.1875 L 72.28125 -81.1875 C 73.707031 -81.1875 74.738281 -80.867188 75.375 -80.234375 C 76.019531 -79.597656 76.34375 -78.5625 76.34375 -77.125 L 76.34375 -68.453125 C 76.34375 -64.992188 76.039062 -62.398438 75.4375 -60.671875 C 74.832031 -58.941406 73.707031 -56.910156 72.0625 -54.578125 L 62.921875 -42.171875 L 72.0625 -30 C 73.789062 -27.664062 74.9375 -25.632812 75.5 -23.90625 C 76.0625 -22.175781 76.34375 -19.582031 76.34375 -16.125 L 76.34375 -4.0625 C 76.34375 -2.632812 76.019531 -1.597656 75.375 -0.953125 C 74.738281 -0.316406 73.707031 0 72.28125 0 L 55.140625 0 C 53.710938 0 52.675781 -0.316406 52.03125 -0.953125 C 51.394531 -1.597656 51.078125 -2.632812 51.078125 -4.0625 L 51.078125 -15.21875 C 51.078125 -15.96875 51.039062 -16.753906 50.96875 -17.578125 C 50.894531 -18.410156 50.59375 -19.203125 50.0625 -19.953125 L 45.109375 -27.0625 C 44.648438 -27.738281 44.234375 -28.226562 43.859375 -28.53125 C 43.484375 -28.832031 43 -28.984375 42.40625 -28.984375 L 40.828125 -28.984375 C 40.222656 -28.984375 39.734375 -28.832031 39.359375 -28.53125 C 38.984375 -28.226562 38.566406 -27.738281 38.109375 -27.0625 L 33.046875 -19.953125 C 32.515625 -19.203125 32.210938 -18.410156 32.140625 -17.578125 C 32.066406 -16.753906 32.03125 -15.96875 32.03125 -15.21875 Z M 32.03125 -4.0625 "/></g></g></g><g fill="#eb3d00" fill-opacity="1"><g transform="translate(319.229022, 165.863195)"><g/></g></g><g fill="#eb3d00" fill-opacity="1"><g transform="translate(344.601316, 165.863195)"><g><path d="M 28.75 0 L 11.84375 0 C 10.414062 0 9.378906 -0.316406 8.734375 -0.953125 C 8.097656 -1.597656 7.78125 -2.632812 7.78125 -4.0625 L 7.78125 -77.125 C 7.78125 -78.5625 8.097656 -79.597656 8.734375 -80.234375 C 9.378906 -80.867188 10.414062 -81.1875 11.84375 -81.1875 L 23.5625 -81.1875 C 24.988281 -81.1875 26.207031 -80.960938 27.21875 -80.515625 C 28.238281 -80.066406 29.238281 -79.273438 30.21875 -78.140625 L 52.09375 -53.109375 L 52.09375 -77.125 C 52.09375 -78.5625 52.410156 -79.597656 53.046875 -80.234375 C 53.691406 -80.867188 54.726562 -81.1875 56.15625 -81.1875 L 73.078125 -81.1875 C 74.503906 -81.1875 75.535156 -80.867188 76.171875 -80.234375 C 76.804688 -79.597656 77.125 -78.5625 77.125 -77.125 L 77.125 -4.0625 C 77.125 -2.632812 76.804688 -1.597656 76.171875 -0.953125 C 75.535156 -0.316406 74.503906 0 73.078125 0 L 56.15625 0 C 54.726562 0 53.691406 -0.316406 53.046875 -0.953125 C 52.410156 -1.597656 52.09375 -2.632812 52.09375 -4.0625 L 52.09375 -17.9375 L 32.8125 -41.265625 L 32.8125 -4.0625 C 32.8125 -2.632812 32.488281 -1.597656 31.84375 -0.953125 C 31.207031 -0.316406 30.175781 0 28.75 0 Z M 28.75 0 "/></g></g></g><g fill="#eb3d00" fill-opacity="1"><g transform="translate(429.513897, 165.863195)"><g><path d="M 37.21875 -57.515625 L 31.90625 -40.375 L 49.609375 -40.375 L 44.3125 -57.515625 C 44.007812 -58.191406 43.6875 -58.675781 43.34375 -58.96875 C 43.007812 -59.269531 42.617188 -59.421875 42.171875 -59.421875 L 39.359375 -59.421875 C 38.898438 -59.421875 38.5 -59.269531 38.15625 -58.96875 C 37.820312 -58.675781 37.507812 -58.191406 37.21875 -57.515625 Z M 30.78125 -4.0625 C 30.78125 -2.632812 30.460938 -1.597656 29.828125 -0.953125 C 29.191406 -0.316406 28.15625 0 26.71875 0 L 10.15625 0 C 8.71875 0 7.679688 -0.316406 7.046875 -0.953125 C 6.410156 -1.597656 6.09375 -2.632812 6.09375 -4.0625 L 6.09375 -33.828125 C 6.09375 -36.085938 6.445312 -38.679688 7.15625 -41.609375 C 7.875 -44.546875 8.984375 -47.96875 10.484375 -51.875 L 20.296875 -77.46875 C 20.742188 -78.75 21.4375 -79.6875 22.375 -80.28125 C 23.320312 -80.882812 24.546875 -81.1875 26.046875 -81.1875 L 56.375 -81.1875 C 57.8125 -81.1875 59 -80.882812 59.9375 -80.28125 C 60.875 -79.6875 61.566406 -78.75 62.015625 -77.46875 L 71.828125 -51.875 C 73.335938 -47.96875 74.445312 -44.546875 75.15625 -41.609375 C 75.875 -38.679688 76.234375 -36.085938 76.234375 -33.828125 L 76.234375 -4.0625 C 76.234375 -2.632812 75.910156 -1.597656 75.265625 -0.953125 C 74.628906 -0.316406 73.597656 0 72.171875 0 L 55.140625 0 C 53.640625 0 52.53125 -0.316406 51.8125 -0.953125 C 51.101562 -1.597656 50.75 -2.632812 50.75 -4.0625 L 50.75 -19.84375 L 30.78125 -19.84375 Z M 30.78125 -4.0625 "/></g></g></g><g fill="#eb3d00" fill-opacity="1"><g transform="translate(511.832877, 165.863195)"><g><path d="M 69.234375 0 L 11.84375 0 C 10.414062 0 9.378906 -0.316406 8.734375 -0.953125 C 8.097656 -1.597656 7.78125 -2.632812 7.78125 -4.0625 L 7.78125 -77.125 C 7.78125 -78.5625 8.097656 -79.597656 8.734375 -80.234375 C 9.378906 -80.867188 10.414062 -81.1875 11.84375 -81.1875 L 29.3125 -81.1875 C 30.75 -81.1875 31.785156 -80.867188 32.421875 -80.234375 C 33.054688 -79.597656 33.375 -78.5625 33.375 -77.125 L 33.375 -21.3125 L 48.828125 -21.3125 L 48.828125 -39.578125 C 48.828125 -41.003906 49.144531 -42.035156 49.78125 -42.671875 C 50.425781 -43.316406 51.460938 -43.640625 52.890625 -43.640625 L 69.234375 -43.640625 C 70.660156 -43.640625 71.691406 -43.316406 72.328125 -42.671875 C 72.972656 -42.035156 73.296875 -41.003906 73.296875 -39.578125 L 73.296875 -4.0625 C 73.296875 -2.632812 72.972656 -1.597656 72.328125 -0.953125 C 71.691406 -0.316406 70.660156 0 69.234375 0 Z M 69.234375 0 "/></g></g></g><g fill="#eb3d00" fill-opacity="1"><g transform="translate(590.205076, 165.863195)"><g><path d="M 46.125 0 L 27.859375 0 C 26.421875 0 25.382812 -0.316406 24.75 -0.953125 C 24.113281 -1.597656 23.796875 -2.632812 23.796875 -4.0625 L 23.796875 -59.421875 L 7.21875 -59.421875 C 5.789062 -59.421875 4.753906 -59.738281 4.109375 -60.375 C 3.472656 -61.019531 3.15625 -62.054688 3.15625 -63.484375 L 3.15625 -77.125 C 3.15625 -78.5625 3.472656 -79.597656 4.109375 -80.234375 C 4.753906 -80.867188 5.789062 -81.1875 7.21875 -81.1875 L 66.75 -81.1875 C 68.1875 -81.1875 69.222656 -80.867188 69.859375 -80.234375 C 70.492188 -79.597656 70.8125 -78.5625 70.8125 -77.125 L 70.8125 -63.484375 C 70.8125 -62.054688 70.492188 -61.019531 69.859375 -60.375 C 69.222656 -59.738281 68.1875 -59.421875 66.75 -59.421875 L 50.1875 -59.421875 L 50.1875 -4.0625 C 50.1875 -2.632812 49.863281 -1.597656 49.21875 -0.953125 C 48.582031 -0.316406 47.550781 0 46.125 0 Z M 46.125 0 "/></g></g></g><g fill="#eb3d00" fill-opacity="1"><g transform="translate(664.179402, 165.863195)"><g><path d="M 76.90625 -21.3125 C 76.90625 -17.851562 76.394531 -14.710938 75.375 -11.890625 C 74.363281 -9.078125 72.5625 -6.671875 69.96875 -4.671875 C 67.375 -2.679688 63.820312 -1.125 59.3125 0 C 54.800781 1.125 49.050781 1.6875 42.0625 1.6875 C 35.070312 1.6875 29.320312 1.125 24.8125 0 C 20.300781 -1.125 16.75 -2.679688 14.15625 -4.671875 C 11.5625 -6.671875 9.753906 -9.078125 8.734375 -11.890625 C 7.722656 -14.710938 7.21875 -17.851562 7.21875 -21.3125 L 7.21875 -77.125 C 7.21875 -78.5625 7.535156 -79.597656 8.171875 -80.234375 C 8.816406 -80.867188 9.851562 -81.1875 11.28125 -81.1875 L 28.984375 -81.1875 C 30.410156 -81.1875 31.441406 -80.867188 32.078125 -80.234375 C 32.722656 -79.597656 33.046875 -78.5625 33.046875 -77.125 L 33.046875 -25.703125 C 33.046875 -24.203125 33.609375 -22.941406 34.734375 -21.921875 C 35.859375 -20.910156 38.375 -20.40625 42.28125 -20.40625 C 46.269531 -20.40625 48.828125 -20.910156 49.953125 -21.921875 C 51.078125 -22.941406 51.640625 -24.203125 51.640625 -25.703125 L 51.640625 -77.125 C 51.640625 -78.5625 51.957031 -79.597656 52.59375 -80.234375 C 53.238281 -80.867188 54.273438 -81.1875 55.703125 -81.1875 L 72.84375 -81.1875 C 74.269531 -81.1875 75.300781 -80.867188 75.9375 -80.234375 C 76.582031 -79.597656 76.90625 -78.5625 76.90625 -77.125 Z M 76.90625 -21.3125 "/></g></g></g></svg>