<svg xmlns="http://www.w3.org/2000/svg" xmlns:xlink="http://www.w3.org/1999/xlink" width="1080" zoomAndPan="magnify" viewBox="0 0 810 809.999993" height="1080" preserveAspectRatio="xMidYMid meet" version="1.0"><defs><clipPath id="84de0f6819"><path d="M 329.199219 273.429688 L 332.949219 273.429688 L 332.949219 277.179688 L 329.199219 277.179688 Z M 329.199219 273.429688 " clip-rule="nonzero"/></clipPath><clipPath id="f1f68b4675"><path d="M 331.074219 273.429688 C 331.574219 273.429688 332.050781 273.628906 332.402344 273.980469 C 332.753906 274.332031 332.949219 274.808594 332.949219 275.304688 C 332.949219 275.804688 332.753906 276.28125 332.402344 276.632812 C 332.050781 276.984375 331.574219 277.179688 331.074219 277.179688 C 330.578125 277.179688 330.101562 276.984375 329.75 276.632812 C 329.398438 276.28125 329.199219 275.804688 329.199219 275.304688 C 329.199219 274.808594 329.398438 274.332031 329.75 273.980469 C 330.101562 273.628906 330.578125 273.429688 331.074219 273.429688 Z M 331.074219 273.429688 " clip-rule="nonzero"/></clipPath></defs><g clip-path="url(#84de0f6819)"><g clip-path="url(#f1f68b4675)"><path fill="#53c1de" d="M 329.199219 273.429688 L 332.949219 273.429688 L 332.949219 277.179688 L 329.199219 277.179688 Z M 329.199219 273.429688 " fill-opacity="1" fill-rule="nonzero"/></g></g><path fill="#01ec64" d="M 460.941406 154.257812 C 433.847656 122.109375 410.515625 89.453125 405.75 82.675781 C 405.636719 82.554688 405.5 82.460938 405.347656 82.394531 C 405.199219 82.332031 405.035156 82.296875 404.871094 82.296875 C 404.707031 82.296875 404.542969 82.332031 404.394531 82.394531 C 404.242188 82.460938 404.105469 82.554688 403.992188 82.675781 C 399.226562 89.457031 375.894531 122.109375 348.796875 154.257812 C 116.230469 450.878906 385.425781 651.054688 385.425781 651.054688 L 387.683594 652.566406 C 389.691406 683.457031 394.710938 727.917969 394.710938 727.917969 L 414.78125 727.917969 C 414.78125 727.917969 419.796875 683.707031 421.804688 652.566406 L 424.0625 650.808594 C 424.3125 651.0625 693.511719 450.878906 460.941406 154.257812 Z M 404.746094 646.535156 C 404.746094 646.535156 392.703125 636.242188 389.441406 630.96875 L 389.441406 630.460938 L 403.992188 307.464844 C 403.992188 306.460938 405.5 306.460938 405.5 307.464844 L 420.050781 630.460938 L 420.050781 630.96875 C 416.789062 636.242188 404.746094 646.535156 404.746094 646.535156 Z M 404.746094 646.535156 " fill-opacity="1" fill-rule="nonzero"/></svg>