<svg xmlns="http://www.w3.org/2000/svg" xmlns:xlink="http://www.w3.org/1999/xlink" width="1080" zoomAndPan="magnify" viewBox="0 0 810 809.999993" height="1080" preserveAspectRatio="xMidYMid meet" version="1.0"><defs><clipPath id="461839656e"><path d="M 329.199219 273.429688 L 332.949219 273.429688 L 332.949219 277.179688 L 329.199219 277.179688 Z M 329.199219 273.429688 " clip-rule="nonzero"/></clipPath><clipPath id="52df445ce1"><path d="M 331.074219 273.429688 C 331.574219 273.429688 332.050781 273.628906 332.402344 273.980469 C 332.753906 274.332031 332.949219 274.808594 332.949219 275.304688 C 332.949219 275.804688 332.753906 276.28125 332.402344 276.632812 C 332.050781 276.984375 331.574219 277.179688 331.074219 277.179688 C 330.578125 277.179688 330.101562 276.984375 329.75 276.632812 C 329.398438 276.28125 329.199219 275.804688 329.199219 275.304688 C 329.199219 274.808594 329.398438 274.332031 329.75 273.980469 C 330.101562 273.628906 330.578125 273.429688 331.074219 273.429688 Z M 331.074219 273.429688 " clip-rule="nonzero"/></clipPath><clipPath id="dc4be03d19"><path d="M 81 81 L 728 81 L 728 729 L 81 729 Z M 81 81 " clip-rule="nonzero"/></clipPath><clipPath id="23083709dd"><path d="M 184.570312 80.175781 L 622.65625 80.175781 C 624.367188 80.175781 626.078125 80.214844 627.785156 80.300781 C 629.496094 80.382812 631.199219 80.511719 632.902344 80.675781 C 634.605469 80.84375 636.304688 81.054688 637.996094 81.304688 C 639.6875 81.554688 641.375 81.847656 643.050781 82.179688 C 644.730469 82.511719 646.398438 82.886719 648.058594 83.300781 C 649.71875 83.71875 651.367188 84.171875 653.003906 84.667969 C 654.640625 85.164062 656.265625 85.699219 657.875 86.277344 C 659.484375 86.851562 661.082031 87.464844 662.664062 88.121094 C 664.242188 88.773438 665.808594 89.464844 667.355469 90.195312 C 668.898438 90.925781 670.429688 91.695312 671.9375 92.5 C 673.445312 93.304688 674.933594 94.144531 676.402344 95.023438 C 677.867188 95.902344 679.3125 96.816406 680.738281 97.765625 C 682.160156 98.714844 683.558594 99.695312 684.933594 100.714844 C 686.304688 101.730469 687.65625 102.78125 688.976562 103.867188 C 690.300781 104.949219 691.59375 106.066406 692.863281 107.210938 C 694.128906 108.359375 695.367188 109.539062 696.578125 110.746094 C 697.789062 111.953125 698.96875 113.191406 700.117188 114.457031 C 701.265625 115.722656 702.382812 117.015625 703.46875 118.335938 C 704.554688 119.65625 705.605469 121 706.625 122.375 C 707.644531 123.746094 708.628906 125.140625 709.578125 126.5625 C 710.53125 127.980469 711.445312 129.425781 712.324219 130.890625 C 713.203125 132.355469 714.046875 133.839844 714.855469 135.347656 C 715.660156 136.855469 716.429688 138.378906 717.160156 139.921875 C 717.890625 141.46875 718.585938 143.027344 719.242188 144.605469 C 719.894531 146.183594 720.511719 147.777344 721.085938 149.386719 C 721.664062 150.996094 722.199219 152.617188 722.695312 154.25 C 723.191406 155.886719 723.648438 157.53125 724.066406 159.1875 C 724.480469 160.84375 724.855469 162.511719 725.1875 164.1875 C 725.523438 165.863281 725.816406 167.542969 726.066406 169.234375 C 726.316406 170.921875 726.527344 172.617188 726.695312 174.320312 C 726.863281 176.019531 726.988281 177.722656 727.070312 179.425781 C 727.15625 181.132812 727.199219 182.839844 727.199219 184.550781 L 727.199219 624.605469 C 727.199219 626.316406 727.15625 628.023438 727.070312 629.726562 C 726.988281 631.433594 726.863281 633.136719 726.695312 634.835938 C 726.527344 636.535156 726.316406 638.230469 726.066406 639.921875 C 725.816406 641.609375 725.523438 643.292969 725.1875 644.96875 C 724.855469 646.644531 724.480469 648.308594 724.066406 649.96875 C 723.648438 651.625 723.191406 653.269531 722.695312 654.90625 C 722.199219 656.539062 721.664062 658.160156 721.085938 659.769531 C 720.511719 661.378906 719.894531 662.96875 719.242188 664.546875 C 718.585938 666.125 717.890625 667.6875 717.160156 669.230469 C 716.429688 670.777344 715.660156 672.300781 714.855469 673.808594 C 714.046875 675.3125 713.203125 676.800781 712.324219 678.265625 C 711.445312 679.730469 710.53125 681.171875 709.578125 682.59375 C 708.628906 684.015625 707.644531 685.410156 706.625 686.78125 C 705.605469 688.152344 704.554688 689.5 703.46875 690.820312 C 702.382812 692.140625 701.265625 693.433594 700.117188 694.699219 C 698.96875 695.964844 697.789062 697.203125 696.578125 698.410156 C 695.367188 699.617188 694.128906 700.796875 692.863281 701.941406 C 691.59375 703.089844 690.300781 704.207031 688.976562 705.289062 C 687.65625 706.371094 686.304688 707.421875 684.933594 708.441406 C 683.558594 709.457031 682.160156 710.441406 680.738281 711.390625 C 679.3125 712.339844 677.867188 713.253906 676.402344 714.128906 C 674.933594 715.007812 673.445312 715.851562 671.9375 716.65625 C 670.429688 717.460938 668.898438 718.230469 667.355469 718.960938 C 665.808594 719.691406 664.242188 720.382812 662.664062 721.035156 C 661.082031 721.6875 659.484375 722.304688 657.875 722.878906 C 656.265625 723.453125 654.640625 723.988281 653.003906 724.484375 C 651.367188 724.980469 649.71875 725.4375 648.058594 725.851562 C 646.398438 726.265625 644.730469 726.640625 643.050781 726.976562 C 641.375 727.308594 639.6875 727.601562 637.996094 727.851562 C 636.304688 728.101562 634.605469 728.308594 632.902344 728.476562 C 631.199219 728.644531 629.496094 728.769531 627.785156 728.855469 C 626.078125 728.9375 624.367188 728.980469 622.65625 728.980469 L 184.570312 728.980469 C 182.859375 728.980469 181.152344 728.9375 179.441406 728.855469 C 177.734375 728.769531 176.027344 728.644531 174.324219 728.476562 C 172.621094 728.308594 170.925781 728.101562 169.234375 727.851562 C 167.539062 727.601562 165.855469 727.308594 164.175781 726.976562 C 162.5 726.640625 160.832031 726.265625 159.171875 725.851562 C 157.511719 725.4375 155.863281 724.980469 154.226562 724.484375 C 152.585938 723.992188 150.964844 723.453125 149.351562 722.878906 C 147.742188 722.304688 146.144531 721.691406 144.566406 721.035156 C 142.984375 720.382812 141.421875 719.691406 139.875 718.960938 C 138.328125 718.230469 136.800781 717.460938 135.292969 716.65625 C 133.78125 715.851562 132.292969 715.007812 130.828125 714.132812 C 129.359375 713.253906 127.914062 712.339844 126.492188 711.390625 C 125.070312 710.441406 123.671875 709.457031 122.296875 708.441406 C 120.921875 707.421875 119.574219 706.371094 118.25 705.289062 C 116.929688 704.207031 115.632812 703.089844 114.367188 701.941406 C 113.097656 700.796875 111.859375 699.617188 110.648438 698.410156 C 109.441406 697.203125 108.261719 695.964844 107.113281 694.699219 C 105.960938 693.433594 104.84375 692.140625 103.761719 690.820312 C 102.675781 689.5 101.621094 688.152344 100.601562 686.78125 C 99.582031 685.410156 98.597656 684.015625 97.648438 682.59375 C 96.699219 681.171875 95.78125 679.730469 94.902344 678.265625 C 94.023438 676.800781 93.179688 675.3125 92.375 673.808594 C 91.566406 672.300781 90.796875 670.777344 90.066406 669.230469 C 89.335938 667.6875 88.644531 666.125 87.988281 664.546875 C 87.332031 662.96875 86.71875 661.375 86.140625 659.769531 C 85.566406 658.160156 85.027344 656.539062 84.53125 654.90625 C 84.035156 653.269531 83.578125 651.625 83.164062 649.96875 C 82.746094 648.308594 82.371094 646.644531 82.039062 644.96875 C 81.707031 643.292969 81.414062 641.609375 81.160156 639.921875 C 80.910156 638.230469 80.703125 636.535156 80.535156 634.835938 C 80.367188 633.136719 80.238281 631.433594 80.15625 629.726562 C 80.074219 628.023438 80.03125 626.316406 80.03125 624.605469 L 80.03125 184.550781 C 80.03125 182.839844 80.074219 181.132812 80.15625 179.425781 C 80.238281 177.722656 80.367188 176.019531 80.535156 174.320312 C 80.703125 172.617188 80.910156 170.921875 81.160156 169.234375 C 81.414062 167.542969 81.707031 165.863281 82.039062 164.1875 C 82.371094 162.511719 82.746094 160.84375 83.164062 159.1875 C 83.578125 157.53125 84.035156 155.886719 84.53125 154.25 C 85.027344 152.617188 85.566406 150.996094 86.140625 149.386719 C 86.71875 147.777344 87.332031 146.183594 87.988281 144.605469 C 88.644531 143.027344 89.335938 141.46875 90.066406 139.921875 C 90.796875 138.378906 91.566406 136.855469 92.375 135.347656 C 93.179688 133.839844 94.023438 132.355469 94.902344 130.890625 C 95.78125 129.425781 96.699219 127.980469 97.648438 126.5625 C 98.597656 125.140625 99.585938 123.746094 100.601562 122.375 C 101.621094 121 102.675781 119.65625 103.761719 118.335938 C 104.84375 117.015625 105.960938 115.722656 107.113281 114.457031 C 108.261719 113.191406 109.441406 111.953125 110.648438 110.746094 C 111.859375 109.539062 113.097656 108.359375 114.367188 107.210938 C 115.632812 106.066406 116.929688 104.949219 118.25 103.867188 C 119.574219 102.78125 120.921875 101.730469 122.296875 100.714844 C 123.671875 99.695312 125.070312 98.714844 126.492188 97.765625 C 127.914062 96.816406 129.359375 95.902344 130.828125 95.023438 C 132.292969 94.144531 133.78125 93.304688 135.292969 92.5 C 136.800781 91.695312 138.328125 90.925781 139.875 90.195312 C 141.421875 89.464844 142.984375 88.773438 144.566406 88.121094 C 146.144531 87.464844 147.742188 86.851562 149.351562 86.277344 C 150.964844 85.699219 152.589844 85.164062 154.226562 84.667969 C 155.863281 84.171875 157.511719 83.71875 159.171875 83.304688 C 160.832031 82.886719 162.5 82.511719 164.175781 82.179688 C 165.855469 81.847656 167.539062 81.554688 169.234375 81.304688 C 170.925781 81.054688 172.621094 80.84375 174.324219 80.675781 C 176.027344 80.511719 177.734375 80.382812 179.441406 80.300781 C 181.152344 80.214844 182.859375 80.175781 184.570312 80.175781 Z M 184.570312 80.175781 " clip-rule="nonzero"/></clipPath><linearGradient x1="255.753676" gradientTransform="matrix(5.05521, 0, 0, 5.04711, -1210.261456, -2066.512382)" y1="554.196304" x2="382.744504" gradientUnits="userSpaceOnUse" y2="424.986842" id="fa94658501"><stop stop-opacity="1" stop-color="rgb(2.69928%, 0.39978%, 20.799255%)" offset="0"/><stop stop-opacity="1" stop-color="rgb(2.867126%, 0.480652%, 20.849609%)" offset="0.0625"/><stop stop-opacity="1" stop-color="rgb(3.189087%, 0.637817%, 20.94574%)" offset="0.0703125"/><stop stop-opacity="1" stop-color="rgb(3.500366%, 0.788879%, 21.038818%)" offset="0.078125"/><stop stop-opacity="1" stop-color="rgb(3.81012%, 0.939941%, 21.131897%)" offset="0.0859375"/><stop stop-opacity="1" stop-color="rgb(4.121399%, 1.091003%, 21.224976%)" offset="0.09375"/><stop stop-opacity="1" stop-color="rgb(4.431152%, 1.243591%, 21.31958%)" offset="0.101562"/><stop stop-opacity="1" stop-color="rgb(4.742432%, 1.394653%, 21.412659%)" offset="0.109375"/><stop stop-opacity="1" stop-color="rgb(5.052185%, 1.545715%, 21.505737%)" offset="0.117188"/><stop stop-opacity="1" stop-color="rgb(5.363464%, 1.696777%, 21.598816%)" offset="0.125"/><stop stop-opacity="1" stop-color="rgb(5.674744%, 1.847839%, 21.691895%)" offset="0.132812"/><stop stop-opacity="1" stop-color="rgb(5.984497%, 1.998901%, 21.784973%)" offset="0.140625"/><stop stop-opacity="1" stop-color="rgb(6.295776%, 2.151489%, 21.878052%)" offset="0.148438"/><stop stop-opacity="1" stop-color="rgb(6.60553%, 2.302551%, 21.97113%)" offset="0.15625"/><stop stop-opacity="1" stop-color="rgb(6.916809%, 2.453613%, 22.065735%)" offset="0.164062"/><stop stop-opacity="1" stop-color="rgb(7.226562%, 2.604675%, 22.158813%)" offset="0.171875"/><stop stop-opacity="1" stop-color="rgb(7.537842%, 2.755737%, 22.251892%)" offset="0.179688"/><stop stop-opacity="1" stop-color="rgb(7.847595%, 2.908325%, 22.344971%)" offset="0.1875"/><stop stop-opacity="1" stop-color="rgb(8.158875%, 3.059387%, 22.438049%)" offset="0.195312"/><stop stop-opacity="1" stop-color="rgb(8.468628%, 3.210449%, 22.531128%)" offset="0.203125"/><stop stop-opacity="1" stop-color="rgb(8.779907%, 3.361511%, 22.624207%)" offset="0.210938"/><stop stop-opacity="1" stop-color="rgb(9.091187%, 3.512573%, 22.717285%)" offset="0.21875"/><stop stop-opacity="1" stop-color="rgb(9.40094%, 3.663635%, 22.810364%)" offset="0.226562"/><stop stop-opacity="1" stop-color="rgb(9.712219%, 3.816223%, 22.904968%)" offset="0.234375"/><stop stop-opacity="1" stop-color="rgb(10.021973%, 3.967285%, 22.998047%)" offset="0.242188"/><stop stop-opacity="1" stop-color="rgb(10.333252%, 4.118347%, 23.091125%)" offset="0.25"/><stop stop-opacity="1" stop-color="rgb(10.643005%, 4.269409%, 23.184204%)" offset="0.257812"/><stop stop-opacity="1" stop-color="rgb(10.954285%, 4.420471%, 23.277283%)" offset="0.265625"/><stop stop-opacity="1" stop-color="rgb(11.264038%, 4.571533%, 23.370361%)" offset="0.273438"/><stop stop-opacity="1" stop-color="rgb(11.575317%, 4.724121%, 23.46344%)" offset="0.28125"/><stop stop-opacity="1" stop-color="rgb(11.885071%, 4.875183%, 23.556519%)" offset="0.289063"/><stop stop-opacity="1" stop-color="rgb(12.19635%, 5.026245%, 23.651123%)" offset="0.296875"/><stop stop-opacity="1" stop-color="rgb(12.507629%, 5.177307%, 23.744202%)" offset="0.304688"/><stop stop-opacity="1" stop-color="rgb(12.817383%, 5.328369%, 23.83728%)" offset="0.3125"/><stop stop-opacity="1" stop-color="rgb(13.128662%, 5.480957%, 23.930359%)" offset="0.320312"/><stop stop-opacity="1" stop-color="rgb(13.438416%, 5.632019%, 24.023438%)" offset="0.328125"/><stop stop-opacity="1" stop-color="rgb(13.749695%, 5.783081%, 24.116516%)" offset="0.335938"/><stop stop-opacity="1" stop-color="rgb(14.059448%, 5.934143%, 24.209595%)" offset="0.34375"/><stop stop-opacity="1" stop-color="rgb(14.370728%, 6.085205%, 24.302673%)" offset="0.351563"/><stop stop-opacity="1" stop-color="rgb(14.680481%, 6.236267%, 24.397278%)" offset="0.359375"/><stop stop-opacity="1" stop-color="rgb(14.99176%, 6.388855%, 24.490356%)" offset="0.367188"/><stop stop-opacity="1" stop-color="rgb(15.301514%, 6.539917%, 24.583435%)" offset="0.375"/><stop stop-opacity="1" stop-color="rgb(15.612793%, 6.690979%, 24.676514%)" offset="0.382813"/><stop stop-opacity="1" stop-color="rgb(15.924072%, 6.842041%, 24.769592%)" offset="0.390625"/><stop stop-opacity="1" stop-color="rgb(16.233826%, 6.993103%, 24.862671%)" offset="0.398438"/><stop stop-opacity="1" stop-color="rgb(16.545105%, 7.145691%, 24.95575%)" offset="0.40625"/><stop stop-opacity="1" stop-color="rgb(16.854858%, 7.296753%, 25.048828%)" offset="0.414063"/><stop stop-opacity="1" stop-color="rgb(17.166138%, 7.447815%, 25.143433%)" offset="0.421875"/><stop stop-opacity="1" stop-color="rgb(17.475891%, 7.598877%, 25.236511%)" offset="0.429688"/><stop stop-opacity="1" stop-color="rgb(17.78717%, 7.749939%, 25.32959%)" offset="0.4375"/><stop stop-opacity="1" stop-color="rgb(18.096924%, 7.901001%, 25.422668%)" offset="0.445312"/><stop stop-opacity="1" stop-color="rgb(18.408203%, 8.053589%, 25.515747%)" offset="0.453125"/><stop stop-opacity="1" stop-color="rgb(18.717957%, 8.204651%, 25.608826%)" offset="0.460938"/><stop stop-opacity="1" stop-color="rgb(19.029236%, 8.355713%, 25.701904%)" offset="0.46875"/><stop stop-opacity="1" stop-color="rgb(19.340515%, 8.506775%, 25.794983%)" offset="0.476563"/><stop stop-opacity="1" stop-color="rgb(19.650269%, 8.657837%, 25.888062%)" offset="0.484375"/><stop stop-opacity="1" stop-color="rgb(19.961548%, 8.808899%, 25.982666%)" offset="0.492188"/><stop stop-opacity="1" stop-color="rgb(20.271301%, 8.961487%, 26.075745%)" offset="0.494581"/><stop stop-opacity="1" stop-color="rgb(20.426941%, 9.037781%, 26.123047%)" offset="0.5"/><stop stop-opacity="1" stop-color="rgb(20.582581%, 9.112549%, 26.168823%)" offset="0.505419"/><stop stop-opacity="1" stop-color="rgb(20.73822%, 9.188843%, 26.216125%)" offset="0.507812"/><stop stop-opacity="1" stop-color="rgb(20.892334%, 9.263611%, 26.261902%)" offset="0.515625"/><stop stop-opacity="1" stop-color="rgb(21.203613%, 9.414673%, 26.35498%)" offset="0.523438"/><stop stop-opacity="1" stop-color="rgb(21.513367%, 9.565735%, 26.448059%)" offset="0.53125"/><stop stop-opacity="1" stop-color="rgb(21.824646%, 9.718323%, 26.541138%)" offset="0.539062"/><stop stop-opacity="1" stop-color="rgb(22.134399%, 9.869385%, 26.634216%)" offset="0.546875"/><stop stop-opacity="1" stop-color="rgb(22.445679%, 10.020447%, 26.728821%)" offset="0.554687"/><stop stop-opacity="1" stop-color="rgb(22.756958%, 10.171509%, 26.821899%)" offset="0.5625"/><stop stop-opacity="1" stop-color="rgb(23.066711%, 10.322571%, 26.914978%)" offset="0.570312"/><stop stop-opacity="1" stop-color="rgb(23.377991%, 10.473633%, 27.008057%)" offset="0.578125"/><stop stop-opacity="1" stop-color="rgb(23.687744%, 10.626221%, 27.101135%)" offset="0.585938"/><stop stop-opacity="1" stop-color="rgb(23.999023%, 10.777283%, 27.194214%)" offset="0.59375"/><stop stop-opacity="1" stop-color="rgb(24.308777%, 10.928345%, 27.287292%)" offset="0.601562"/><stop stop-opacity="1" stop-color="rgb(24.620056%, 11.079407%, 27.380371%)" offset="0.609375"/><stop stop-opacity="1" stop-color="rgb(24.92981%, 11.230469%, 27.474976%)" offset="0.617188"/><stop stop-opacity="1" stop-color="rgb(25.241089%, 11.381531%, 27.568054%)" offset="0.625"/><stop stop-opacity="1" stop-color="rgb(25.550842%, 11.534119%, 27.661133%)" offset="0.632812"/><stop stop-opacity="1" stop-color="rgb(25.862122%, 11.685181%, 27.754211%)" offset="0.640625"/><stop stop-opacity="1" stop-color="rgb(26.173401%, 11.836243%, 27.84729%)" offset="0.648438"/><stop stop-opacity="1" stop-color="rgb(26.483154%, 11.987305%, 27.940369%)" offset="0.65625"/><stop stop-opacity="1" stop-color="rgb(26.794434%, 12.138367%, 28.033447%)" offset="0.664062"/><stop stop-opacity="1" stop-color="rgb(27.104187%, 12.290955%, 28.126526%)" offset="0.671875"/><stop stop-opacity="1" stop-color="rgb(27.415466%, 12.442017%, 28.22113%)" offset="0.679688"/><stop stop-opacity="1" stop-color="rgb(27.72522%, 12.593079%, 28.314209%)" offset="0.6875"/><stop stop-opacity="1" stop-color="rgb(28.036499%, 12.744141%, 28.407288%)" offset="0.695313"/><stop stop-opacity="1" stop-color="rgb(28.346252%, 12.895203%, 28.500366%)" offset="0.703125"/><stop stop-opacity="1" stop-color="rgb(28.657532%, 13.046265%, 28.593445%)" offset="0.710938"/><stop stop-opacity="1" stop-color="rgb(28.967285%, 13.198853%, 28.686523%)" offset="0.71875"/><stop stop-opacity="1" stop-color="rgb(29.278564%, 13.349915%, 28.779602%)" offset="0.726562"/><stop stop-opacity="1" stop-color="rgb(29.589844%, 13.500977%, 28.872681%)" offset="0.734375"/><stop stop-opacity="1" stop-color="rgb(29.899597%, 13.652039%, 28.967285%)" offset="0.742188"/><stop stop-opacity="1" stop-color="rgb(30.210876%, 13.803101%, 29.060364%)" offset="0.75"/><stop stop-opacity="1" stop-color="rgb(30.52063%, 13.955688%, 29.153442%)" offset="0.757812"/><stop stop-opacity="1" stop-color="rgb(30.831909%, 14.10675%, 29.246521%)" offset="0.765625"/><stop stop-opacity="1" stop-color="rgb(31.141663%, 14.257812%, 29.3396%)" offset="0.773438"/><stop stop-opacity="1" stop-color="rgb(31.452942%, 14.408875%, 29.432678%)" offset="0.78125"/><stop stop-opacity="1" stop-color="rgb(31.762695%, 14.559937%, 29.525757%)" offset="0.789062"/><stop stop-opacity="1" stop-color="rgb(32.073975%, 14.710999%, 29.618835%)" offset="0.796875"/><stop stop-opacity="1" stop-color="rgb(32.383728%, 14.863586%, 29.711914%)" offset="0.804687"/><stop stop-opacity="1" stop-color="rgb(32.695007%, 15.014648%, 29.806519%)" offset="0.8125"/><stop stop-opacity="1" stop-color="rgb(33.006287%, 15.16571%, 29.899597%)" offset="0.820312"/><stop stop-opacity="1" stop-color="rgb(33.31604%, 15.316772%, 29.992676%)" offset="0.828125"/><stop stop-opacity="1" stop-color="rgb(33.627319%, 15.467834%, 30.085754%)" offset="0.835938"/><stop stop-opacity="1" stop-color="rgb(33.937073%, 15.618896%, 30.178833%)" offset="0.84375"/><stop stop-opacity="1" stop-color="rgb(34.248352%, 15.771484%, 30.271912%)" offset="0.851562"/><stop stop-opacity="1" stop-color="rgb(34.558105%, 15.922546%, 30.36499%)" offset="0.859375"/><stop stop-opacity="1" stop-color="rgb(34.869385%, 16.073608%, 30.458069%)" offset="0.867188"/><stop stop-opacity="1" stop-color="rgb(35.179138%, 16.22467%, 30.552673%)" offset="0.875"/><stop stop-opacity="1" stop-color="rgb(35.490417%, 16.375732%, 30.645752%)" offset="0.882812"/><stop stop-opacity="1" stop-color="rgb(35.800171%, 16.52832%, 30.738831%)" offset="0.890625"/><stop stop-opacity="1" stop-color="rgb(36.11145%, 16.679382%, 30.831909%)" offset="0.898438"/><stop stop-opacity="1" stop-color="rgb(36.422729%, 16.830444%, 30.924988%)" offset="0.90625"/><stop stop-opacity="1" stop-color="rgb(36.732483%, 16.981506%, 31.018066%)" offset="0.914063"/><stop stop-opacity="1" stop-color="rgb(37.043762%, 17.132568%, 31.111145%)" offset="0.921875"/><stop stop-opacity="1" stop-color="rgb(37.353516%, 17.28363%, 31.204224%)" offset="0.929688"/><stop stop-opacity="1" stop-color="rgb(37.664795%, 17.436218%, 31.298828%)" offset="0.9375"/><stop stop-opacity="1" stop-color="rgb(37.908936%, 17.555237%, 31.37207%)" offset="1"/></linearGradient></defs><g clip-path="url(#461839656e)"><g clip-path="url(#52df445ce1)"><path fill="#53c1de" d="M 329.199219 273.429688 L 332.949219 273.429688 L 332.949219 277.179688 L 329.199219 277.179688 Z M 329.199219 273.429688 " fill-opacity="1" fill-rule="nonzero"/></g></g><g clip-path="url(#dc4be03d19)"><g clip-path="url(#23083709dd)"><path fill="url(#fa94658501)" d="M 81 81 L 81 728.980469 L 727.199219 728.980469 L 727.199219 81 Z M 81 81 " fill-rule="nonzero"/></g></g><path fill="#ffffff" d="M 408.46875 359.429688 C 424.996094 359.429688 437.523438 355.898438 446.0625 348.664062 C 454.601562 341.433594 458.867188 330.898438 458.867188 316.90625 C 458.867188 303.085938 454.601562 292.585938 446.0625 285.410156 C 437.46875 278.050781 424.992188 274.371094 408.46875 274.371094 L 350.433594 274.371094 L 350.433594 359.4375 L 408.46875 359.4375 M 412.007812 535.210938 C 433.070312 535.210938 448.875 530.820312 459.410156 522.023438 C 470.125 513.230469 475.484375 499.953125 475.484375 482.1875 C 475.484375 464.773438 470.214844 451.769531 459.679688 443.15625 C 449.148438 434.367188 433.257812 429.96875 412.011719 429.96875 L 350.4375 429.96875 L 350.4375 535.222656 L 412.011719 535.222656 M 509.542969 390.671875 C 532.0625 397.132812 549.496094 409.070312 561.847656 426.472656 C 574.199219 443.875 580.371094 465.234375 580.375 490.539062 C 580.375 529.300781 567.113281 558.195312 540.601562 577.21875 C 514.085938 596.242188 473.769531 605.75 419.644531 605.75 L 245.5625 605.75 L 245.5625 203.949219 L 403.03125 203.949219 C 459.515625 203.949219 500.382812 212.378906 525.621094 229.25 C 551.050781 246.117188 563.761719 273.132812 563.761719 310.277344 C 563.761719 329.839844 559.132812 346.527344 549.871094 360.34375 C 540.609375 373.984375 527.125 384.066406 509.550781 390.765625 " fill-opacity="1" fill-rule="nonzero"/></svg>