<svg xmlns="http://www.w3.org/2000/svg" xmlns:xlink="http://www.w3.org/1999/xlink" width="1080" zoomAndPan="magnify" viewBox="0 0 810 809.999993" height="1080" preserveAspectRatio="xMidYMid meet" version="1.0"><defs><clipPath id="9e3057680b"><path d="M 329.199219 273.429688 L 332.949219 273.429688 L 332.949219 277.179688 L 329.199219 277.179688 Z M 329.199219 273.429688 " clip-rule="nonzero"/></clipPath><clipPath id="17a0b416cd"><path d="M 331.074219 273.429688 C 331.574219 273.429688 332.050781 273.628906 332.402344 273.980469 C 332.753906 274.332031 332.949219 274.808594 332.949219 275.304688 C 332.949219 275.804688 332.753906 276.28125 332.402344 276.632812 C 332.050781 276.984375 331.574219 277.179688 331.074219 277.179688 C 330.578125 277.179688 330.101562 276.984375 329.75 276.632812 C 329.398438 276.28125 329.199219 275.804688 329.199219 275.304688 C 329.199219 274.808594 329.398438 274.332031 329.75 273.980469 C 330.101562 273.628906 330.578125 273.429688 331.074219 273.429688 Z M 331.074219 273.429688 " clip-rule="nonzero"/></clipPath></defs><g clip-path="url(#9e3057680b)"><g clip-path="url(#17a0b416cd)"><path fill="#53c1de" d="M 329.199219 273.429688 L 332.949219 273.429688 L 332.949219 277.179688 L 329.199219 277.179688 Z M 329.199219 273.429688 " fill-opacity="1" fill-rule="nonzero"/></g></g><path fill="#000000" d="M 575.789062 124.179688 C 356.648438 -4.613281 78.195312 152.691406 75.769531 406.648438 C 73.402344 654.632812 335.960938 814.808594 554.605469 705.660156 L 315.882812 354.589844 L 315.882812 571.894531 C 315.882812 595.972656 269.789062 595.972656 269.789062 571.894531 L 269.789062 280.582031 C 269.789062 261.46875 305.308594 259.898438 315.375 276.511719 L 587.472656 686.9375 C 791.875 555.339844 789.113281 249.558594 575.789062 124.179688 Z M 545.042969 535.4375 L 498.804688 464.839844 L 498.804688 271.574219 C 498.804688 253.554688 545.042969 253.554688 545.042969 271.574219 Z M 545.042969 535.4375 " fill-opacity="1" fill-rule="nonzero"/></svg>