<svg xmlns="http://www.w3.org/2000/svg" xmlns:xlink="http://www.w3.org/1999/xlink" width="1080" zoomAndPan="magnify" viewBox="0 0 810 809.999993" height="1080" preserveAspectRatio="xMidYMid meet" version="1.0"><defs><clipPath id="cdaaa5b2df"><path d="M 329.199219 273.429688 L 332.949219 273.429688 L 332.949219 277.179688 L 329.199219 277.179688 Z M 329.199219 273.429688 " clip-rule="nonzero"/></clipPath><clipPath id="050c230b27"><path d="M 331.074219 273.429688 C 331.574219 273.429688 332.050781 273.628906 332.402344 273.980469 C 332.753906 274.332031 332.949219 274.808594 332.949219 275.304688 C 332.949219 275.804688 332.753906 276.28125 332.402344 276.632812 C 332.050781 276.984375 331.574219 277.179688 331.074219 277.179688 C 330.578125 277.179688 330.101562 276.984375 329.75 276.632812 C 329.398438 276.28125 329.199219 275.804688 329.199219 275.304688 C 329.199219 274.808594 329.398438 274.332031 329.75 273.980469 C 330.101562 273.628906 330.578125 273.429688 331.074219 273.429688 Z M 331.074219 273.429688 " clip-rule="nonzero"/></clipPath><clipPath id="5785675309"><path d="M 81 90.84375 L 719.25 90.84375 L 719.25 729.09375 L 81 729.09375 Z M 81 90.84375 " clip-rule="nonzero"/></clipPath></defs><g clip-path="url(#cdaaa5b2df)"><g clip-path="url(#050c230b27)"><path fill="#53c1de" d="M 329.199219 273.429688 L 332.949219 273.429688 L 332.949219 277.179688 L 329.199219 277.179688 Z M 329.199219 273.429688 " fill-opacity="1" fill-rule="nonzero"/></g></g><g clip-path="url(#5785675309)"><path fill="#000000" d="M 598.964844 90.84375 L 201.285156 90.84375 C 135.003906 90.84375 81 144.851562 81 211.132812 L 81 608.808594 C 81 675.089844 135.003906 729.09375 201.285156 729.09375 L 598.964844 729.09375 C 665.246094 729.09375 719.25 675.089844 719.25 608.808594 L 719.25 211.132812 C 719.25 144.851562 665.246094 90.84375 598.964844 90.84375 Z M 260.199219 493.433594 C 243.015625 493.433594 225.832031 488.523438 218.46875 483.613281 L 216.015625 481.160156 L 223.378906 459.066406 C 223.378906 459.066406 223.378906 456.613281 225.832031 456.613281 C 228.289062 456.613281 228.289062 456.613281 228.289062 456.613281 C 235.652344 461.519531 247.925781 466.429688 262.65625 466.429688 C 277.382812 466.429688 287.203125 459.066406 287.203125 449.246094 C 287.203125 441.882812 282.292969 434.519531 262.65625 427.152344 C 233.199219 417.335938 220.925781 402.605469 220.925781 380.511719 C 220.925781 353.507812 243.015625 333.871094 277.382812 333.871094 C 294.566406 333.871094 306.84375 338.78125 314.207031 341.234375 C 316.660156 341.234375 316.660156 343.691406 316.660156 343.691406 L 309.296875 365.785156 C 309.296875 365.785156 309.296875 368.238281 306.84375 368.238281 L 304.386719 368.238281 C 297.023438 365.785156 287.203125 360.875 274.929688 360.875 C 257.746094 360.875 252.835938 370.695312 252.835938 375.601562 C 252.835938 385.421875 257.746094 390.332031 279.839844 397.695312 C 306.84375 407.515625 319.117188 422.246094 319.117188 444.335938 C 319.117188 466.429688 304.386719 493.433594 260.199219 493.433594 Z M 471.3125 488.523438 C 471.3125 488.523438 473.769531 488.523438 473.769531 490.980469 C 473.769531 493.433594 473.769531 493.433594 473.769531 493.433594 L 468.859375 513.074219 C 468.859375 515.527344 466.40625 515.527344 466.40625 515.527344 C 446.765625 510.617188 429.582031 505.707031 407.488281 495.886719 C 405.035156 495.886719 402.578125 493.433594 397.671875 493.433594 C 363.304688 490.980469 328.9375 466.429688 328.9375 414.878906 C 328.9375 365.785156 358.394531 333.871094 402.578125 333.871094 C 444.3125 333.871094 473.769531 365.785156 473.769531 412.425781 C 473.769531 444.335938 461.496094 468.886719 439.402344 481.160156 C 449.222656 483.613281 461.496094 486.070312 471.3125 488.523438 Z M 586.691406 490.980469 L 498.316406 490.980469 C 495.863281 490.980469 495.863281 488.523438 495.863281 488.523438 L 495.863281 338.78125 C 495.863281 336.324219 498.316406 336.324219 498.316406 336.324219 L 522.867188 336.324219 C 525.320312 336.324219 525.320312 338.78125 525.320312 338.78125 L 525.320312 461.519531 L 584.234375 461.519531 C 586.691406 461.519531 586.691406 463.976562 586.691406 463.976562 L 586.691406 488.523438 L 589.144531 488.523438 C 589.144531 490.980469 586.691406 490.980469 586.691406 490.980469 Z M 586.691406 490.980469 " fill-opacity="1" fill-rule="nonzero"/></g><path fill="#000000" d="M 402.578125 360.875 C 375.578125 360.875 363.304688 387.878906 363.304688 412.425781 C 363.304688 441.882812 378.03125 463.976562 400.125 463.976562 C 427.128906 463.976562 439.402344 436.972656 439.402344 412.425781 C 441.855469 387.878906 429.582031 360.875 402.578125 360.875 Z M 402.578125 360.875 " fill-opacity="1" fill-rule="nonzero"/></svg>