<svg xmlns="http://www.w3.org/2000/svg" xmlns:xlink="http://www.w3.org/1999/xlink" width="1080" zoomAndPan="magnify" viewBox="0 0 810 809.999993" height="1080" preserveAspectRatio="xMidYMid meet" version="1.0"><defs><clipPath id="93132a6b11"><path d="M 329.199219 273.429688 L 332.949219 273.429688 L 332.949219 277.179688 L 329.199219 277.179688 Z M 329.199219 273.429688 " clip-rule="nonzero"/></clipPath><clipPath id="d080a9c7b7"><path d="M 331.074219 273.429688 C 331.574219 273.429688 332.050781 273.628906 332.402344 273.980469 C 332.753906 274.332031 332.949219 274.808594 332.949219 275.304688 C 332.949219 275.804688 332.753906 276.28125 332.402344 276.632812 C 332.050781 276.984375 331.574219 277.179688 331.074219 277.179688 C 330.578125 277.179688 330.101562 276.984375 329.75 276.632812 C 329.398438 276.28125 329.199219 275.804688 329.199219 275.304688 C 329.199219 274.808594 329.398438 274.332031 329.75 273.980469 C 330.101562 273.628906 330.578125 273.429688 331.074219 273.429688 Z M 331.074219 273.429688 " clip-rule="nonzero"/></clipPath><clipPath id="f210351d66"><path d="M 98 91.964844 L 704 91.964844 L 704 724 L 98 724 Z M 98 91.964844 " clip-rule="nonzero"/></clipPath></defs><g clip-path="url(#93132a6b11)"><g clip-path="url(#d080a9c7b7)"><path fill="#53c1de" d="M 329.199219 273.429688 L 332.949219 273.429688 L 332.949219 277.179688 L 329.199219 277.179688 Z M 329.199219 273.429688 " fill-opacity="1" fill-rule="nonzero"/></g></g><path fill="#000000" d="M 662.871094 484.460938 C 662.871094 484.496094 662.855469 484.511719 662.820312 484.511719 C 662.785156 484.511719 662.765625 484.496094 662.765625 484.460938 C 662.765625 484.425781 662.785156 484.40625 662.820312 484.40625 C 662.855469 484.40625 662.871094 484.425781 662.871094 484.460938 Z M 662.871094 484.460938 " fill-opacity="1" fill-rule="nonzero"/><path fill="#32648d" d="M 584.882812 479.460938 L 584.933594 479.511719 L 584.933594 479.539062 L 584.855469 479.566406 C 581.039062 480.960938 577.882812 481.539062 575.222656 482.722656 C 572.515625 483.800781 570.332031 485.777344 569.042969 488.300781 L 569.015625 488.355469 C 567.382812 491.378906 565.960938 496.746094 566.382812 505.878906 C 567.460938 506.667969 568.777344 507.273438 570.121094 507.695312 L 570.226562 507.71875 C 574.671875 509.089844 582.117188 509.984375 590.433594 509.851562 C 607.011719 509.667969 627.429688 505.746094 638.269531 500.640625 C 647.609375 496.195312 655.609375 490.828125 662.738281 484.460938 C 626.535156 492.039062 606.089844 490.011719 593.539062 484.777344 C 590.273438 483.355469 587.40625 481.59375 584.882812 479.460938 Z M 584.882812 479.460938 " fill-opacity="1" fill-rule="nonzero"/><path fill="#32648d" d="M 547.753906 201.183594 L 547.914062 201.421875 L 548.097656 201.632812 Z M 547.753906 201.183594 " fill-opacity="1" fill-rule="nonzero"/><path fill="#32648d" d="M 409.273438 599.757812 C 409.246094 599.101562 409.273438 598.417969 409.246094 597.757812 C 409.246094 597.496094 409.21875 597.3125 409.21875 597.050781 Z M 409.273438 599.757812 " fill-opacity="1" fill-rule="nonzero"/><path fill="#32648d" d="M 381.511719 483.644531 C 379.984375 482.882812 378.195312 482.328125 376.277344 482.066406 L 376.195312 482.066406 L 376.195312 482.011719 L 375.644531 482.011719 C 374.277344 482.144531 372.277344 482.617188 368.382812 486.960938 C 359.332031 497.222656 356.171875 503.667969 348.699219 509.691406 C 341.226562 515.691406 331.542969 518.902344 312.179688 522.929688 C 306.046875 524.191406 302.523438 525.585938 300.207031 526.71875 C 300.96875 527.347656 300.890625 527.507812 302.023438 528.113281 C 304.863281 529.691406 308.496094 531.085938 311.441406 531.847656 C 319.757812 533.953125 333.4375 536.398438 347.699219 533.953125 C 361.960938 531.480469 376.800781 524.558594 389.457031 506.589844 C 391.640625 503.484375 391.878906 498.90625 390.089844 493.984375 C 388.300781 489.066406 384.300781 484.828125 381.511719 483.644531 Z M 381.511719 483.644531 " fill-opacity="1" fill-rule="nonzero"/><path fill="#32648d" d="M 487.761719 131.484375 L 486.261719 131.773438 C 486.761719 131.667969 487.316406 131.617188 487.816406 131.511719 C 487.789062 131.511719 487.789062 131.484375 487.761719 131.484375 Z M 487.761719 131.484375 " fill-opacity="1" fill-rule="nonzero"/><path fill="#32648d" d="M 560.964844 273.515625 C 543.308594 273.753906 533.414062 278.359375 528.203125 284.382812 C 520.835938 292.933594 520.152344 307.933594 524.730469 326.402344 C 529.28125 344.902344 538.675781 365.582031 547.515625 382.765625 C 551.9375 391.367188 556.226562 399.105469 559.675781 405.390625 C 563.148438 411.707031 565.699219 416.179688 567.25 419.996094 C 568.671875 423.519531 570.277344 426.625 571.882812 429.519531 C 578.722656 414.917969 579.933594 400.578125 579.25 385.632812 C 578.355469 367.136719 574.09375 348.214844 574.726562 329.0625 C 575.433594 306.667969 579.804688 292.09375 580.171875 274.78125 C 574.410156 273.992188 567.726562 273.515625 560.964844 273.515625 Z M 564.226562 286.832031 L 564.199219 287.042969 C 564.199219 287.121094 564.199219 287.199219 564.199219 287.304688 C 564.199219 288.515625 563.859375 289.671875 563.253906 290.621094 L 563.277344 290.59375 C 562.464844 292.09375 561.515625 293.410156 560.410156 294.539062 C 557.832031 297.40625 554.386719 299.40625 550.492188 300.09375 L 550.386719 300.117188 C 549.832031 300.195312 549.203125 300.222656 548.542969 300.222656 C 545.226562 300.222656 542.175781 299.171875 539.675781 297.382812 L 539.730469 297.40625 C 538.441406 296.511719 537.308594 295.488281 536.386719 294.328125 L 536.359375 294.304688 C 535.546875 293.410156 534.964844 292.25 534.730469 291.015625 L 534.730469 290.960938 C 534.730469 290.828125 534.703125 290.699219 534.703125 290.566406 C 534.703125 289.433594 535.125 288.382812 535.835938 287.59375 C 536.675781 286.621094 537.675781 285.832031 538.835938 285.25 L 538.886719 285.226562 C 541.386719 283.804688 544.753906 282.753906 548.570312 282.171875 C 549.992188 281.964844 551.410156 281.859375 552.726562 281.832031 L 552.726562 281.910156 L 554.015625 281.910156 C 555.726562 281.964844 557.304688 282.148438 558.699219 282.488281 C 560.09375 282.804688 561.304688 283.277344 562.277344 283.9375 C 563.253906 284.59375 563.988281 285.59375 564.226562 286.832031 Z M 564.226562 286.832031 " fill-opacity="1" fill-rule="nonzero"/><path fill="#32648d" d="M 271.394531 389.472656 C 271.394531 384.738281 271.761719 380.105469 272.445312 375.554688 L 272.394531 376.054688 C 275.078125 356.609375 275.445312 338.429688 275.128906 324.0625 C 274.816406 310.0625 273.816406 300.75 273.816406 294.933594 C 273.816406 294.855469 273.816406 294.777344 273.816406 294.699219 C 273.816406 294.617188 273.816406 294.515625 273.816406 294.433594 L 273.816406 294.304688 L 273.789062 294.144531 L 273.789062 294.117188 C 273.789062 294.066406 273.789062 294.039062 273.789062 293.988281 C 273.789062 262.835938 279.261719 232.96875 289.179688 205.261719 C 296.46875 185.6875 307.3125 165.820312 323.546875 149.71875 C 307.574219 144.402344 279.261719 136.300781 248.582031 134.773438 C 245.632812 134.617188 242.1875 134.511719 238.742188 134.511719 L 238.714844 134.511719 L 238.714844 134.535156 C 235.425781 134.535156 232.109375 134.640625 228.847656 134.828125 C 202.585938 136.351562 177.75 144.0625 160.011719 163.113281 C 142.226562 182.160156 130.515625 213.394531 133.070312 265.097656 C 133.570312 274.886719 137.78125 302.300781 144.988281 334.875 C 152.226562 367.449219 162.40625 405.789062 174.667969 439.652344 C 186.957031 473.515625 201.851562 502.984375 216.007812 516.929688 C 223.136719 523.902344 229.320312 526.71875 234.925781 526.480469 C 240.554688 526.21875 247.34375 522.929688 255.632812 512.851562 C 271.921875 493.011719 287.3125 475.460938 303.207031 458.410156 L 302.679688 458.964844 C 283.472656 441.992188 271.394531 417.179688 271.394531 389.472656 Z M 271.394531 389.472656 " fill-opacity="1" fill-rule="nonzero"/><path fill="#32648d" d="M 411.351562 133.222656 L 411.351562 133.167969 C 380.617188 133.246094 358.59375 142.640625 341.859375 156.71875 C 324.625 171.269531 313.074219 191.1875 305.46875 211.578125 C 296.445312 235.785156 293.363281 259.203125 292.128906 275.09375 L 292.46875 274.886719 C 301.757812 269.621094 313.941406 264.359375 326.992188 261.308594 C 340.042969 258.253906 354.09375 257.335938 366.828125 262.335938 C 379.566406 267.332031 390.089844 279.09375 393.90625 296.933594 C 412.191406 382.632812 388.222656 414.496094 379.378906 438.546875 C 376.566406 445.464844 373.644531 454.359375 371.199219 463.4375 L 370.777344 465.199219 C 371.882812 464.9375 373.011719 464.621094 374.117188 464.515625 C 380.355469 463.988281 385.25 466.09375 388.144531 467.355469 C 397.035156 471.09375 403.140625 478.933594 406.429688 487.878906 C 407.296875 490.222656 407.902344 492.75 408.273438 495.351562 C 408.613281 496.246094 408.796875 497.300781 408.796875 498.378906 C 408.796875 498.484375 408.796875 498.589844 408.796875 498.695312 C 408.378906 511.851562 408.113281 527.296875 408.113281 542.820312 C 408.113281 561.210938 408.480469 579.523438 409.167969 597.757812 C 409.773438 611.597656 410.640625 623.859375 411.71875 633.515625 C 412.851562 643.359375 414.429688 650.804688 415.429688 653.332031 C 418.746094 661.75 423.613281 672.773438 432.398438 680.273438 C 441.1875 687.746094 453.792969 692.746094 476.816406 687.746094 C 496.785156 683.40625 509.101562 677.378906 517.335938 668.722656 C 525.574219 660.066406 530.46875 648.015625 533.597656 629.570312 C 538.308594 601.941406 547.753906 521.824219 548.910156 506.746094 C 548.386719 495.378906 550.042969 486.644531 553.648438 479.988281 C 557.332031 473.144531 563.066406 468.960938 567.988281 466.699219 C 570.460938 465.566406 572.777344 464.804688 574.671875 464.253906 C 572.355469 460.910156 570.277344 458.121094 568.121094 455.410156 L 568.355469 455.699219 C 561.542969 447.386719 555.726562 437.835938 551.332031 427.546875 L 551.042969 426.785156 C 548.386719 421.285156 546.148438 417.128906 543.808594 413.050781 L 544.359375 414.074219 C 540.914062 407.761719 536.546875 399.867188 531.96875 391 C 522.808594 373.238281 512.863281 351.714844 507.679688 330.746094 C 502.523438 309.800781 501.785156 288.121094 514.996094 272.832031 C 526.679688 259.253906 547.226562 253.625 578.039062 256.78125 C 577.144531 254.019531 576.59375 251.730469 575.039062 248.046875 C 567.542969 230.417969 558.515625 215.210938 547.808594 201.421875 C 521.679688 167.691406 479.445312 134.300781 414.246094 133.222656 Z M 411.351562 133.222656 " fill-opacity="1" fill-rule="nonzero"/><path fill="#32648d" d="M 291.761719 296.410156 L 291.8125 296.382812 L 291.890625 296.304688 Z M 291.761719 296.410156 " fill-opacity="1" fill-rule="nonzero"/><path fill="#32648d" d="M 330.441406 278.59375 L 330.703125 278.570312 L 330.914062 278.488281 Z M 330.441406 278.59375 " fill-opacity="1" fill-rule="nonzero"/><path fill="#32648d" d="M 363.039062 432.363281 C 373.59375 403.578125 394.351562 382.578125 376.882812 300.644531 C 374.011719 287.226562 368.355469 281.804688 360.566406 278.753906 C 356.777344 277.359375 352.382812 276.542969 347.78125 276.542969 C 347.488281 276.542969 347.175781 276.542969 346.882812 276.542969 L 346.9375 276.542969 C 341.332031 276.59375 335.914062 277.304688 330.703125 278.570312 C 319.652344 281.359375 309.914062 285.304688 300.863281 290.355469 C 297.46875 292.226562 294.550781 294.171875 291.8125 296.355469 L 291.3125 296.828125 C 291.46875 300.671875 292.207031 309.984375 292.523438 323.695312 C 292.839844 338.691406 292.46875 357.820312 289.601562 378.527344 C 283.394531 423.519531 315.652344 460.777344 353.542969 460.832031 C 355.777344 451.597656 359.410156 442.230469 363.039062 432.363281 Z M 340.648438 301.617188 C 339.410156 300.355469 338.414062 298.933594 337.597656 297.382812 L 337.542969 297.277344 C 336.859375 296.171875 336.464844 294.828125 336.464844 293.382812 C 336.464844 293.121094 336.492188 292.855469 336.519531 292.59375 L 336.519531 292.621094 C 336.914062 289.777344 339.226562 288.304688 341.464844 287.488281 C 343.542969 286.804688 345.859375 286.410156 348.332031 286.410156 C 348.699219 286.410156 349.070312 286.410156 349.488281 286.4375 L 349.464844 286.332031 C 350.832031 286.332031 352.304688 286.460938 353.777344 286.671875 C 357.75 287.226562 361.304688 288.304688 363.988281 289.882812 C 365.328125 290.621094 366.488281 291.539062 367.410156 292.644531 L 367.433594 292.671875 C 368.328125 293.699219 368.855469 295.039062 368.855469 296.539062 C 368.855469 296.75 368.855469 296.960938 368.828125 297.171875 L 368.828125 297.144531 C 368.566406 298.722656 367.855469 300.09375 366.882812 301.195312 C 365.804688 302.511719 364.59375 303.644531 363.226562 304.589844 L 363.171875 304.617188 C 360.515625 306.566406 357.171875 307.722656 353.566406 307.722656 C 352.859375 307.722656 352.148438 307.667969 351.464844 307.589844 L 351.542969 307.589844 C 347.175781 306.855469 343.4375 304.695312 340.648438 301.617188 Z M 340.648438 301.617188 " fill-opacity="1" fill-rule="nonzero"/><path fill="#32648d" d="M 300.339844 290.621094 C 300.523438 290.515625 300.707031 290.460938 300.863281 290.355469 C 300.890625 290.355469 300.917969 290.332031 300.941406 290.304688 Z M 300.339844 290.621094 " fill-opacity="1" fill-rule="nonzero"/><path fill="#32648d" d="M 561.832031 190.6875 C 573.226562 205.289062 583.09375 221.917969 590.695312 239.757812 L 591.25 241.207031 C 594.117188 248.152344 596.039062 254.019531 597.117188 258.570312 C 597.667969 260.859375 598.039062 262.78125 598.167969 264.78125 C 598.222656 265.78125 598.273438 266.808594 597.851562 268.570312 C 597.851562 268.648438 597.722656 268.832031 597.695312 268.914062 C 598.484375 291.960938 592.828125 307.589844 592.167969 329.585938 C 591.644531 345.53125 595.667969 364.265625 596.667969 384.710938 C 597.617188 403.917969 595.328125 425.019531 582.988281 445.730469 C 584.039062 446.992188 584.960938 448.253906 585.960938 449.519531 C 618.5625 397.550781 642.058594 340.058594 654.582031 291.039062 C 661.292969 264.648438 664.84375 240.730469 665.160156 221.789062 C 665.425781 202.84375 661.925781 189.109375 657.503906 183.371094 C 622.613281 138.21875 575.433594 126.722656 535.859375 126.40625 L 535.859375 126.433594 L 532.070312 126.433594 C 516.8125 126.667969 502.074219 128.433594 487.839844 131.511719 C 520.152344 146.035156 544.625 168.402344 561.832031 190.6875 Z M 561.832031 190.6875 " fill-opacity="1" fill-rule="nonzero"/><g clip-path="url(#f210351d66)"><path fill="#000000" d="M 415.691406 98.753906 L 415.429688 98.753906 C 384.800781 98.226562 358.515625 105.75 337.28125 118.277344 C 316.386719 110.933594 273.050781 98.277344 227.347656 100.804688 C 195.535156 102.566406 160.804688 112.355469 135.070312 139.851562 C 109.414062 167.347656 95.863281 209.894531 98.707031 267.78125 C 99.496094 283.753906 103.996094 309.800781 111.441406 343.53125 C 118.914062 377.265625 129.386719 416.757812 142.464844 452.78125 C 155.539062 488.828125 169.855469 521.191406 192.246094 543.1875 C 203.429688 554.214844 218.820312 563.476562 236.953125 562.710938 C 249.6875 562.1875 261.183594 556.527344 271.132812 548.1875 C 275.972656 554.632812 281.128906 557.449219 285.839844 560.054688 C 291.761719 563.34375 297.523438 565.578125 303.496094 567.054688 C 314.230469 569.761719 332.597656 573.394531 354.121094 569.683594 C 361.460938 568.449219 369.171875 566.027344 376.855469 562.582031 C 377.144531 571.261719 377.484375 579.761719 377.800781 588.367188 C 378.878906 615.625 379.539062 640.804688 387.617188 662.882812 C 388.90625 666.484375 392.484375 685.0625 406.507812 701.453125 C 420.535156 717.875 448.054688 728.109375 479.367188 721.320312 C 501.46875 716.53125 529.546875 707.902344 548.226562 681.011719 C 566.671875 654.433594 574.988281 616.308594 576.644531 554.476562 C 577.066406 551.132812 577.566406 548.292969 578.066406 545.636719 L 582.460938 546.03125 L 582.988281 546.03125 C 606.5625 547.109375 632.136719 543.714844 653.503906 533.664062 C 672.421875 524.796875 686.738281 515.824219 697.183594 499.90625 C 699.789062 495.957031 702.628906 491.195312 703.417969 482.988281 C 704.207031 474.777344 699.550781 461.9375 691.816406 456.015625 C 676.34375 444.125 666.632812 448.648438 656.214844 450.832031 C 646.925781 453.015625 636.191406 454.386719 625.191406 454.675781 L 624.980469 454.675781 C 655.03125 403.445312 676.582031 349.03125 688.867188 300.882812 C 696.15625 272.464844 700.234375 246.257812 700.550781 223.339844 C 700.894531 200.421875 699.050781 180.136719 685.472656 162.585938 C 643.085938 107.75 583.488281 92.59375 537.359375 92.070312 C 535.941406 92.042969 534.492188 92.015625 533.070312 92.042969 L 533.070312 91.964844 C 507.96875 92.175781 483.816406 95.964844 460.949219 102.726562 L 459.871094 103.09375 C 446.660156 100.621094 431.320312 99.042969 415.691406 98.753906 Z M 478.027344 115.511719 C 494.128906 111.539062 512.652344 109.144531 531.703125 108.910156 L 531.863281 108.910156 L 531.886719 108.804688 C 575.515625 108.382812 631.21875 120.777344 671.238281 172.53125 C 680.238281 184.160156 682.921875 201.160156 682.605469 222.101562 C 682.265625 243.019531 678.449219 268.070312 671.449219 295.511719 C 657.871094 348.664062 632.242188 410.628906 596.144531 466.226562 C 597.328125 467.09375 598.695312 467.855469 600.117188 468.4375 L 600.246094 468.488281 C 607.773438 471.644531 624.957031 474.355469 659.242188 467.226562 C 667.871094 465.382812 674.1875 464.148438 680.738281 469.199219 C 683.683594 471.726562 685.527344 475.460938 685.527344 479.644531 C 685.527344 479.90625 685.527344 480.171875 685.5 480.433594 L 685.5 480.40625 C 685.105469 483.75 683.921875 486.75 682.105469 489.25 C 675.476562 499.328125 662.398438 508.878906 645.664062 516.746094 C 630.824219 523.742188 609.535156 527.402344 590.671875 527.613281 C 581.199219 527.71875 572.488281 526.980469 565.066406 524.636719 L 564.59375 524.453125 C 561.726562 552.34375 555.148438 607.414062 550.859375 632.542969 C 547.4375 652.804688 541.4375 668.90625 529.96875 680.957031 C 518.519531 693.007812 502.339844 700.269531 480.550781 705.007812 C 453.582031 710.875 433.898438 704.558594 421.21875 693.746094 C 408.5625 682.957031 402.773438 668.644531 399.273438 659.882812 C 396.878906 653.832031 395.640625 645.988281 394.429688 635.515625 C 393.222656 625.042969 392.351562 612.230469 391.746094 597.785156 C 391.167969 583.101562 390.851562 565.84375 390.851562 548.503906 C 390.851562 542.792969 390.90625 537.109375 390.957031 531.402344 C 380.089844 541.503906 366.355469 548.609375 351.09375 551.320312 L 350.621094 551.398438 C 332.703125 554.476562 316.730469 551.449219 307.179688 549.03125 C 302.101562 547.742188 297.679688 545.925781 293.523438 543.660156 C 289.15625 541.292969 284.996094 538.582031 282.207031 533.296875 C 281.101562 531.269531 280.445312 528.820312 280.445312 526.242188 C 280.445312 525.21875 280.550781 524.191406 280.761719 523.242188 C 281.707031 519.71875 283.683594 516.71875 286.390625 514.613281 L 286.417969 514.585938 C 291.574219 510.351562 298.363281 507.984375 308.652344 505.824219 C 327.335938 501.929688 333.859375 499.273438 337.832031 496.089844 C 341.203125 493.351562 345.042969 487.828125 351.777344 479.722656 C 351.753906 479.488281 351.726562 479.09375 351.699219 478.722656 L 351.699219 478.644531 C 338.964844 478.277344 327.097656 474.828125 316.730469 469.015625 L 317.125 469.226562 C 313.230469 473.382812 293.3125 494.695312 269.050781 524.269531 C 258.84375 536.636719 247.554688 543.742188 235.660156 544.242188 C 223.769531 544.742188 213.007812 538.6875 203.851562 529.714844 C 185.5625 511.746094 170.984375 480.828125 158.277344 445.886719 C 145.59375 410.945312 135.28125 372.027344 127.9375 338.875 C 120.570312 305.722656 116.253906 278.988281 115.625 266.097656 C 112.886719 211.316406 125.542969 174.398438 147.25 151.113281 C 168.984375 127.828125 198.773438 119.011719 227.792969 117.328125 C 279.917969 114.304688 329.386719 132.695312 339.410156 136.640625 C 358.726562 123.378906 383.589844 115.117188 414.613281 115.644531 C 430.242188 115.882812 445.265625 117.960938 459.632812 121.671875 L 458.316406 121.382812 L 458.84375 121.144531 C 463.871094 119.25 470.289062 117.328125 476.867188 115.75 Z M 478.027344 115.511719 " fill-opacity="1" fill-rule="nonzero"/></g></svg>