<svg xmlns="http://www.w3.org/2000/svg" xmlns:xlink="http://www.w3.org/1999/xlink" width="1080" zoomAndPan="magnify" viewBox="0 0 810 809.999993" height="1080" preserveAspectRatio="xMidYMid meet" version="1.0"><defs><clipPath id="c019c9a79d"><path d="M 329.199219 273.429688 L 332.949219 273.429688 L 332.949219 277.179688 L 329.199219 277.179688 Z M 329.199219 273.429688 " clip-rule="nonzero"/></clipPath><clipPath id="998573dd5e"><path d="M 331.074219 273.429688 C 331.574219 273.429688 332.050781 273.628906 332.402344 273.980469 C 332.753906 274.332031 332.949219 274.808594 332.949219 275.304688 C 332.949219 275.804688 332.753906 276.28125 332.402344 276.632812 C 332.050781 276.984375 331.574219 277.179688 331.074219 277.179688 C 330.578125 277.179688 330.101562 276.984375 329.75 276.632812 C 329.398438 276.28125 329.199219 275.804688 329.199219 275.304688 C 329.199219 274.808594 329.398438 274.332031 329.75 273.980469 C 330.101562 273.628906 330.578125 273.429688 331.074219 273.429688 Z M 331.074219 273.429688 " clip-rule="nonzero"/></clipPath><clipPath id="a53555c51c"><path d="M 93.082031 214 L 729.082031 214 L 729.082031 596 L 93.082031 596 Z M 93.082031 214 " clip-rule="nonzero"/></clipPath></defs><g clip-path="url(#c019c9a79d)"><g clip-path="url(#998573dd5e)"><path fill="#53c1de" d="M 329.199219 273.429688 L 332.949219 273.429688 L 332.949219 277.179688 L 329.199219 277.179688 Z M 329.199219 273.429688 " fill-opacity="1" fill-rule="nonzero"/></g></g><g clip-path="url(#a53555c51c)"><path fill="#000000" d="M 411.09375 214.113281 C 326.179688 214.113281 273.386719 256.425781 252.078125 341.363281 C 283.878906 299.050781 321.089844 283.144531 363.386719 293.644531 C 387.558594 299.6875 405.050781 317.183594 424.128906 336.589844 C 455.296875 368.402344 490.601562 404.984375 570.105469 404.984375 C 655.019531 404.984375 707.8125 362.675781 729.121094 277.738281 C 697.316406 320.046875 660.105469 335.953125 617.8125 325.457031 C 593.640625 319.410156 576.46875 301.914062 557.066406 282.507812 C 525.898438 250.699219 490.601562 214.113281 411.09375 214.113281 Z M 252.078125 404.984375 C 167.164062 404.984375 114.371094 447.292969 93.0625 532.234375 C 124.867188 489.921875 162.074219 474.019531 204.375 484.511719 C 228.542969 490.558594 245.71875 508.054688 265.117188 527.460938 C 296.285156 559.273438 331.585938 595.855469 411.09375 595.855469 C 496.003906 595.855469 548.800781 553.546875 570.105469 468.609375 C 538.304688 510.917969 501.09375 526.824219 458.796875 516.324219 C 434.625 510.285156 417.453125 492.785156 398.054688 473.382812 C 366.886719 441.570312 331.585938 404.984375 252.078125 404.984375 Z M 252.078125 404.984375 " fill-opacity="1" fill-rule="nonzero"/></g></svg>